<svg xmlns="http://www.w3.org/2000/svg" viewBox="0 0 191 191"><defs><style>.cls-1{fill:#2599ce;}.cls-2{fill:#fff;}.cls-3{fill:#ff5352;}</style></defs><title>ss-brandmark</title><g id="Layer_2" data-name="Layer 2"><circle class="cls-1" cx="95.5" cy="95.5" r="95.25"/><path class="cls-2" d="M82.69,158.29c-31.19,0-48-18.79-48-40.88C34.69,97,50.06,81,69.69,81a28.79,28.79,0,0,1,9.54,1.59,35,35,0,0,1-4.7-17.09c0-19.51,17.1-36,37.33-36,23.77,0,34.46,16.52,34.46,28.25,0,12.1-9,21.59-20.46,21.59a17.17,17.17,0,0,1-3.27-.31c6.56,8.45,13.11,19.54,13.11,35.31C135.69,134.63,123.62,158.29,82.69,158.29Z"/><path class="cls-3" d="M111.85,37.54c-16.71,0-29.33,13.83-29.33,28,0,18,19.74,26.17,19.74,50,0,17-14.24,22.17-24.74,22.17-11.17,0-19.83-7.33-19.83-21.17,0-12.53,6.5-16.67,12.67-16.67,4.33,0,6.17,4.33,6.17,6.83,0,5.46-7,8.67-7,15.17S73.19,131,79,131s13.33-6,13.33-16.67S84.85,89,69.69,89s-27,12.13-27,28.38c0,15.25,12.58,32.88,38,32.88,36.71,0,47-20.75,47-35.92,0-29.08-26-39.45-26-53.5,0-9.21,6.21-15,12-15,4.67,0,6.83,2.5,6.83,4.67,0,3.75-3.83,7-3.83,11.67a9.24,9.24,0,0,0,9.17,9.17c7.17,0,12.46-6.08,12.46-13.59C138.31,49.67,130.35,37.54,111.85,37.54Z"/></g><g id="shine"><path class="cls-2" d="M131,47.6c6.92,6.38,5.13,16.38,1,18.75A22.42,22.42,0,0,0,131,47.6Z"/><path class="cls-2" d="M86.09,104c2.37,4.12,5.53,15.59-2.62,21.78C86.1,120.17,87.23,113.49,86.09,104Z"/><path class="cls-2" d="M113.22,86.42c6.88,9.5,15.75,30.5,2.75,47.5C122.29,121.26,121.83,104,113.22,86.42Z"/></g></svg>