<?xml version="1.0" encoding="utf-8"?>
<!-- Generator: Adobe Illustrator 22.0.1, SVG Export Plug-In . SVG Version: 6.00 Build 0)  -->
<svg version="1.1" id="Layer_1" xmlns="http://www.w3.org/2000/svg" xmlns:xlink="http://www.w3.org/1999/xlink" x="0px" y="0px"
	 viewBox="0 0 312 76" style="enable-background:new 0 0 312 76;" xml:space="preserve">
<style type="text/css">
	.st0{fill:#5EB0DB;}
	.st1{fill:#FF5660;}
	.st2{fill:#FFFFFF;}
</style>
<path class="st0" d="M308.9,14L308.9,14c-1.6-1.8-3.7-2.7-5.7-2.7c-0.1,0-0.2,0-0.3,0C301.2,5,295.5,1,287.8,1c-4.2,0-7.5,2-8.9,5.2
	c-0.4,0.9-0.7,1.8-0.8,2.8c-1.4-0.2-2.8-0.3-4.5-0.4c-7.6,0-14.8,3.4-17.6,8.2c-0.7,1.2-1.1,2.6-1.2,3.9c-2.2-1.1-4.6-1.7-7.2-1.7
	c-3.7,0-7.8,1.4-11.5,3.8c-1-1.5-2.2-2.6-3.6-3.3c-1.5-0.8-3.2-1.2-5.1-1.2c-2.5,0.1-4.8,0.9-6.6,2.1c-1.7-1-3.7-1.5-5.9-1.5
	c-2.6,0-5.6,0.9-7.9,2.3c-1.6-1.1-3.5-1.9-5.6-2.2c0-0.3,0-0.5,0-0.8c0-10.3-9.5-18.3-21.7-18.3c-12.6,0-23.3,10.3-23.3,22.5
	c0,1.9,0.2,3.7,0.7,5.4c-0.1,0-0.2,0-0.4,0c-4.7,0-9.2,1.5-12.9,4.3c0-0.1,0-0.2,0-0.3c0.2-2.3-0.3-4.6-1.3-6.6
	c2.4-2.8,3.4-6.5,2.6-10.1c-0.9-4.6-4.7-8.3-9.4-9.1c-4.8-0.8-9.4,1.3-12,5.4c-1.5,2.6-2,5.6-1.5,8.4c-1.5-0.7-3.3-1-5-1
	c-2.6,0.1-5.1,0.6-7.2,1.5c-2-1.2-4.3-1.9-6.8-1.9s-5.1,0.5-7.5,1.5c-1.9-0.9-4-1.4-6.2-1.4c-3.3-0.1-6.5,0.8-9.3,2.6
	c-2.3-1.5-5.1-2.2-8.2-2.2c-1.6,0-3.4,0.3-5.2,0.8c0.1-0.5,0.1-1,0.1-1.5c0-10.3-9.5-18.4-21.7-18.4c-12.6,0-23.3,10.3-23.3,22.5
	c0,1.9,0.2,3.7,0.7,5.4c-0.1,0-0.2,0-0.4,0c-12.3,0-22,10-22,22.7c0,14.4,12,25.2,27.9,25.2c14.2,0,24.8-5.2,30-14.8
	c2.4,1.2,5.2,1.9,8.3,1.9c2.5,0,5.4-0.7,8.7-2.2c2.1,1.5,4.7,2.3,7.7,2.3H83c2.6-0.1,4.9-0.5,6.8-1.1l0,0c1.9,1.3,4.2,2,6.5,1.9
	c2.6,0.1,5.3-0.4,8.1-1.6c1.7,1.1,3.8,1.7,6,1.7c3,0,6.1-0.7,8.8-2c2.1,1.3,4.7,2,7.6,2c3.5,0,7.1-1.2,10.2-3.3
	c4.2,9.4,13.9,15.2,25.8,15.2c13.8,0,24.2-4.9,29.3-13.8c1.8,0.7,3.7,1,5.5,0.9c2.8,0,5.6-0.6,8.2-1.8c2.4,1.3,5,1.9,7.4,1.8
	c5.7,0,10.8-2.2,15.1-6.3c0.8,1,1.6,1.9,2.5,2.7c3,2.4,6.9,3.7,11.2,3.7c3.3,0,7.1-1.2,11.6-3.8c3,2.5,7.1,3.8,12.2,3.8
	c3.1,0,6.7-1.1,11.1-3.4c2.6,2.2,5.9,3.4,9.7,3.4c8.5,0,14.8-4.2,18.3-12.2l0.1-0.2c1.4-3,1.5-6,0.4-8.6c-1.1-2.4-2.9-4.1-5.2-4.9
	c-0.9-0.4-1.8-0.5-2.8-0.5l0,0c0.1-0.2,0.1-0.4,0.2-0.5c8.2-0.6,13.7-7.3,14.1-13.4C311.9,19.4,311,16.3,308.9,14z M308.7,22.5
	c-0.3,4.2-4.2,10.3-11.6,10.7c-0.2,0-0.5,0-0.7,0h-0.1h-0.9l-0.3,0.8c-0.8,2.4-1.7,4.8-2.4,6.8c-0.2,0.6-0.4,1.2-0.5,1.8
	c0.8-1,1.9-2,3.2-2.6c0,0,0,0,0.1,0c0.4-0.2,0.9-0.3,1.4-0.3c0.2,0,0.3,0,0.5,0s0.3,0,0.5,0c0.3,0,0.6,0.1,0.9,0.2c0,0,0,0,0.1,0
	s0.2,0.1,0.4,0.1c1.6,0.5,2.9,1.7,3.5,3.2c0.2,0.5,0.4,1,0.5,1.7c0,0,0,0,0,0.1c0.2,1.4-0.1,2.9-0.8,4.4l-0.1,0.3
	c-2.6,6-6.9,9.5-12.8,10.3c-0.3,0-0.6,0.1-0.9,0.1c-0.6,0.1-1.3,0.1-2,0.1c-0.3,0-0.6,0-0.9,0s-0.5,0-0.8-0.1
	c-0.5,0-0.9-0.1-1.4-0.2c-0.1,0-0.1,0-0.2,0c-0.2,0-0.4-0.1-0.5-0.2c-0.2,0-0.3-0.1-0.5-0.2c-1.6-0.5-3-1.4-4.2-2.6l-0.8-0.8
	l-0.6,0.3l-0.1,0.1l-0.3,0.2c-0.2,0.1-0.5,0.3-0.7,0.4c-0.3,0.2-0.7,0.4-1,0.5c-0.1,0.1-0.2,0.1-0.3,0.2c-0.2,0.1-0.4,0.2-0.6,0.3
	c-0.3,0.1-0.5,0.3-0.8,0.4c-0.3,0.1-0.5,0.2-0.8,0.3c-0.4,0.2-0.9,0.3-1.3,0.5c-0.6,0.2-1.1,0.4-1.6,0.5c-0.4,0.1-0.8,0.2-1.2,0.3
	c-0.1,0-0.2,0.1-0.4,0.1c-0.2,0-0.3,0.1-0.5,0.1s-0.5,0-0.7,0.1l0,0c-0.2,0-0.4,0-0.7,0c-0.4,0-0.7,0-1,0h-0.1c-0.3,0-0.7,0-1-0.1
	c-0.3,0-0.6,0-0.9-0.1h-0.1c-1-0.1-2-0.3-2.9-0.6c-0.2-0.1-0.4-0.1-0.6-0.2c-0.4-0.1-0.8-0.3-1.2-0.5c-0.2-0.1-0.4-0.2-0.6-0.3
	c-0.5-0.2-0.9-0.5-1.4-0.8c-0.1-0.1-0.2-0.1-0.3-0.2c-0.6-0.5-1.2-1-1.7-1.5l-0.1-0.1l-1,0.6c-1.3,0.8-2.5,1.4-3.7,1.9
	c-0.3,0.1-0.5,0.2-0.8,0.3s-0.5,0.2-0.8,0.3s-0.5,0.2-0.8,0.3s-0.5,0.2-0.8,0.3c-0.5,0.2-1,0.3-1.5,0.4c-0.6,0.2-1.3,0.2-1.9,0.3
	c-0.1,0-0.3,0-0.4,0c-0.2,0-0.4,0-0.6,0c-0.8,0-1.5,0-2.2-0.1c-0.3,0-0.6-0.1-0.9-0.1c-0.5-0.1-0.9-0.2-1.4-0.3
	c-0.4-0.1-0.8-0.2-1.2-0.4c-0.2-0.1-0.4-0.1-0.6-0.2c-0.9-0.4-1.8-0.9-2.6-1.5c-0.2-0.1-0.3-0.2-0.5-0.4c0,0,0,0-0.1-0.1
	c-0.3-0.2-0.5-0.5-0.8-0.7c-0.8-0.8-1.5-1.7-2.1-2.7l0,0l-1-1.8l-1.4,1.5c-3.9,4.4-8.8,6.7-14.2,6.7c-2.1,0.1-4.4-0.5-6.5-1.8
	l-0.7-0.4l-0.7,0.4c-2.4,1.2-5,1.8-7.7,1.8c-1.8,0.1-3.6-0.3-5.3-1.2l-1.3-0.7l-0.7,1.4c-2.6,5.1-7,8.8-13,11
	c-0.5,0.2-1,0.4-1.5,0.5c-0.4,0.1-0.7,0.2-1.1,0.3c-0.3,0.1-0.6,0.2-0.9,0.3c-1,0.3-2.1,0.5-3.2,0.6c-0.4,0.1-0.9,0.2-1.4,0.2
	c-0.3,0-0.6,0.1-0.9,0.1c-0.4,0-0.8,0.1-1.1,0.1c-0.4,0-0.8,0.1-1.2,0.1c-0.5,0-1.1,0-1.7,0.1c-0.5,0-1,0-1.5,0c-0.4,0-0.7,0-1,0
	c-0.4,0-0.7,0-1,0s-0.7,0-1-0.1c-0.6-0.1-1.2-0.1-1.8-0.2c-4.2-0.7-7.7-2.1-10.6-4.2c-0.2-0.2-0.5-0.4-0.7-0.5
	c-1-0.7-1.8-1.5-2.7-2.4c-0.2-0.2-0.4-0.4-0.6-0.7c-0.6-0.7-1.2-1.4-1.6-2.1c-0.3-0.4-0.5-0.8-0.7-1.2c-1-1.6-1.7-3.4-2.2-5.2
	l-0.2-0.5l-1.6,1.4c-1.6,1.4-3.5,2.4-5.5,3.1c-0.2,0.1-0.4,0.1-0.6,0.2c-0.2,0.1-0.4,0.1-0.6,0.2c-0.1,0-0.2,0-0.3,0.1
	c-0.2,0-0.3,0.1-0.5,0.1c-0.3,0-0.5,0.1-0.8,0.1s-0.6,0.1-0.8,0.1c-0.2,0-0.5,0-0.7,0h-0.1c-0.3,0-0.5,0-0.8,0h-0.1
	c-0.9-0.1-1.8-0.2-2.6-0.5c-0.2-0.1-0.4-0.1-0.6-0.2c-0.9-0.3-1.7-0.7-2.4-1.3l-0.8-0.6l-0.9,0.5c-2.5,1.4-5.3,2.1-8.2,2.1h-0.1
	c-0.2,0-0.4,0-0.6,0c-0.1,0-0.3,0-0.4,0c-0.2,0-0.3,0-0.5-0.1c-0.1,0-0.1,0-0.2,0c-0.2,0-0.4-0.1-0.6-0.1l0,0
	c-0.2-0.1-0.5-0.2-0.7-0.3s-0.5-0.2-0.7-0.3s-0.4-0.2-0.6-0.3c-0.4-0.3-0.9-0.6-1.2-0.9l-1.4,0.7c-2.4,1-4.7,1.5-6.9,1.4h-0.1
	c-0.2,0-0.3,0-0.5,0c-2.1,0-4.1-0.9-5.5-2.4l-0.6,0.3l0,0L89.3,59h-0.1l-0.3,0.1c-1.7,0.6-3.8,0.9-6.1,1h-0.3
	c-3.1,0-5.5-0.9-7.1-2.8v-0.1l-0.9,0.4c-0.1,0.1-0.2,0.1-0.3,0.2h-0.1c-2.8,1.4-5.5,2.2-7.9,2.2c-3.7,0-6.9-1.1-9.3-3.1l-0.2-0.1
	L56,58.4c-0.6,1.4-1.4,2.6-2.3,3.8c-0.2,0.2-0.4,0.5-0.5,0.7c-0.2,0.2-0.4,0.5-0.6,0.7c-0.2,0.2-0.4,0.5-0.6,0.7
	c-0.2,0.2-0.3,0.3-0.5,0.5c-0.1,0.1-0.3,0.3-0.4,0.4c-0.2,0.2-0.3,0.3-0.5,0.5s-0.4,0.4-0.6,0.5c-0.2,0.2-0.3,0.3-0.5,0.4
	c-0.2,0.2-0.4,0.3-0.6,0.5c-0.2,0.2-0.4,0.3-0.7,0.5c-0.2,0.2-0.5,0.3-0.7,0.4c-0.3,0.2-0.5,0.3-0.8,0.5s-0.7,0.4-1,0.5
	c-0.6,0.3-1.1,0.6-1.7,0.8c-0.3,0.1-0.6,0.3-0.9,0.4c-4.3,1.8-9.4,2.7-15.1,2.7c-13.8,0-24.3-9-24.9-21.2c0-0.3,0-0.7,0-1
	c0-0.4,0-0.7,0-1c0.5-10.6,8.6-18.8,19-18.8c1.3,0,2.5,0.1,3.8,0.5l1.1,0.1l-0.7-1.8C26.1,29.5,26,29.2,26,29
	c-0.8-2-1.2-4.2-1.2-6.5C24.7,11.9,34,3,45,3c6.2,0,10.7,2,13.8,4.9C58.9,8,59,8.2,59.2,8.3c3,2.9,4.6,6.6,4.6,10.2
	c0,1.1-0.1,2.2-0.5,3.4l-0.7,2.9l1.1-0.5h0.1c2.7-1.5,5.5-2.2,8-2.2c3.4,0,6.2,1.1,8.3,3h0.1c0.3-0.4,0.7-0.8,1.1-1.1
	c2.3-1.6,5.1-2.5,8-2.4c2.2,0,4.3,0.6,6.1,1.8c2.3-1.3,5-2,7.7-2c2.4,0,4.6,0.8,6.4,2.4c2.4-1.2,5-1.9,7.7-1.9
	c2.3,0,4.7,0.8,6.3,2.6l0.1,0.1l0.1-0.1l0.1-0.1c0.5-0.4,1.1-0.8,1.7-1.1l0.9-0.6l-0.6-1.2c-0.4-0.8-0.7-1.6-0.8-2.5v-0.1
	c0-0.2,0-0.4-0.1-0.6c0-0.1,0-0.2,0-0.3c-0.1-1.4,0.2-2.9,0.9-4.2c0,0,0-0.1,0.1-0.2c0.1-0.2,0.2-0.4,0.3-0.5c1.9-3,5.3-4.6,8.9-4
	c0.1,0,0.2,0,0.4,0.1c0.1,0,0.2,0,0.3,0.1c0.8,0.2,1.7,0.5,2.4,1c0.5,0.3,1,0.6,1.4,1.1c1.3,1.2,2.2,2.8,2.6,4.5
	c0.2,1,0.2,2.1,0.1,3.1c0,0.1,0,0.3-0.1,0.4c0,0.1-0.1,0.2-0.1,0.3c0,0.2-0.1,0.3-0.1,0.5c-0.1,0.3-0.2,0.7-0.4,1
	c-0.5,1.1-1.2,2-2,2.9l-0.9,0.9l0.2,0.3c1.1,1.2,1.7,2.8,1.9,4.3v0.1c0,0.1,0,0.3,0.1,0.4c0,0.5,0,1,0,1.4
	c-0.4,2.7-1.7,6.3-3.7,10.8c0.7,0.1,1.4,0.3,2,0.7c0.7-1.9,1.7-3.6,2.9-5.1c3.5-4.4,8.9-7.1,14.7-7.1c1.3,0,2.5,0.1,3.8,0.5
	c0.5,0.1,1,0.3,1.4,0.4c-0.4-0.7-0.8-1.4-1.1-2.1v-0.1c-0.1-0.2-0.1-0.3-0.2-0.5c-0.1-0.3-0.2-0.5-0.3-0.8c-0.7-1.9-1-3.8-1-5.9
	c0-10.6,9.3-19.5,20.3-19.5c5.4,0,9.5,1.6,12.5,3.8c0.1,0.1,0.3,0.2,0.4,0.3c3.9,3.2,5.7,7.6,5.7,11.1c0,1-0.1,2.2-0.4,3.2l0,0
	l-0.1,0.4h0.3l0,0c0.3,0,0.7,0,1,0c1.3,0,2.6,0.2,3.9,0.7c0.1,0,0.2,0.1,0.3,0.1c0.2,0.1,0.3,0.1,0.5,0.2c0.8,0.4,1.5,0.8,2.2,1.4
	l0.9,0.8l0.2-0.2c2.1-2,5.5-3,7.7-3c1,0,1.9,0.2,2.8,0.5c0.1,0,0.3,0.1,0.4,0.1c0.7,0.2,1.4,0.6,2,1.1l0.1,0.1l0.4,0.3l0.4,0.3
	c1.7-1.9,4-2.9,6.5-3c1.4,0,2.9,0.3,4.2,1.1c0.1,0.1,0.3,0.2,0.4,0.3c1.2,1,2.3,2.5,2.9,4.9c0.1-0.1,0.1-0.1,0.2-0.2
	c3.7-3.2,8.1-5.1,11.9-5.3c0.2,0,0.5,0,0.7,0s0.5,0,0.7,0l0,0c0.3,0,0.6,0,0.8,0.1c0.2,0,0.5,0,0.7,0.1c0.4,0.1,0.9,0.2,1.3,0.3
	c2.9,0.8,5.2,2.6,6.5,4.9c0.7-0.7,1.4-1.3,2.1-1.8c-0.8-0.7-1.3-1.5-1.6-2.3c-0.7-1.6-0.6-3.5,0.3-5.2c2.2-3.8,8.6-6.7,14.9-6.7
	c2.4,0.1,4.7,0.4,7,1l1,0.2l-0.1-0.9l0,0c-0.5-1.4-0.5-2.9,0.1-4.3c1-2.2,3.3-3.5,6.2-3.5c2.3,0,4.5,0.4,6.2,1.2
	c0.1,0,0.1,0,0.2,0.1c3.4,1.5,5.6,4.2,6.2,8l0.3,1.6c0.7-0.4,1.4-0.5,2.2-0.5c0.5,0,0.9,0.1,1.4,0.2c0.1,0,0.3,0.1,0.4,0.1
	s0.3,0.1,0.4,0.2s0.3,0.1,0.4,0.2c0.1,0,0.1,0.1,0.2,0.1c0.1,0.1,0.2,0.1,0.3,0.2c0.3,0.2,0.6,0.5,0.9,0.8
	C308.2,17.6,308.9,19.9,308.7,22.5z"/>
<title>ss-logo</title>
<desc>Created with Sketch.</desc>
<g id="Page-1">
	<g id="Home-Page" transform="translate(-117.000000, -85.000000)">
		<g id="ss-logo" transform="translate(120.000000, 88.000000)">
			<g id="new_logo">
				<path id="Shape" class="st1" d="M76.1,30.2c0,6.4-17.1,13-17.1,13l-0.1-3.9c7.3,0,16.2-11.5,9.7-11.5c-3.1,0-6.9,6.9-7,11.5
					c-0.1,5,1.2,7.7,3.9,7.7c6.9,0,17-9.9,17-9.9s0.1,3.9-0.9,5.2C80.7,43.6,69.2,52.9,63,52.9c-4,0-10-1.7-10-11.6
					c0-10.9,9.3-17.8,15.6-17.8C73.4,23.4,76.1,26.1,76.1,30.2z"/>
				<path id="Shape_1_" class="st1" d="M251.8,30.2c0,7.1-17.1,13-17.1,13l-0.1-3.9c7.3,0,15.2-11.5,9.7-11.5c-2.9,0-6.9,6.9-7,11.5
					c-0.1,5,1.2,7.7,3.9,7.7c6.9,0,17-9.9,17-9.9s0.1,3.9-0.9,5.2c-0.9,1.3-12.4,10.6-18.6,10.6c-4,0-10-1.7-10-11.6
					c0-10.9,9.3-17.8,15.6-17.8C249.1,23.4,251.8,26.1,251.8,30.2z"/>
				<path id="Shape_2_" class="st1" d="M274.6,29.4c0,6.9-16.7,13.3-16.7,13.3l-0.6-4c7.3,0,15.5-11,10.2-11c-7.3,0-9.6,19.8-3,19.8
					c6.9,0,16.5-9.4,16.5-9.4s0.1,3.9-0.9,5.2c-0.9,1.3-11.4,9.5-17.5,9.5c-4,0-11.1-0.7-11.1-11.6s9.8-18.4,16.1-18.4
					C272.3,22.9,274.6,25.4,274.6,29.4z"/>
				<path id="Shape_3_" class="st1" d="M86.2,23c2.9,0,5.8,1.7,5.5,5.3c-0.6,7-6.6,13.4-6.9,23.2c0,0.2-0.2,0.4-0.4,0.5
					c-1.6,0.5-3.3,0.8-5,0.9c-2.3,0-4.9-0.7-4.4-3.7c0.3-1.5,7.7-18.4,7.7-20.9c0-1.2-0.8-2.2-1.9-2.5c-0.2-0.1-0.4-0.3-0.4-0.5
					s0.1-0.4,0.2-0.6C82.4,23.5,84.3,23,86.2,23z"/>
				<path id="Shape_4_" class="st1" d="M100,22.9c3.7,0,5.7,3.4,4.9,5.7c-2.6,8-5.9,14.3-6.6,19.9c-0.2,1.2-0.1,2.3,0.2,3.5
					c0.1,0.3,0,0.5-0.3,0.7c-1.7,0.7-3.5,1.1-5.3,1c-3.6,0-3.8-3.2-3.6-4.7c0.4-2.7,5.9-16,6.7-19.3c0.2-0.9-0.4-1.3-1-1.1
					c-1.9,0.5-6.4,3.6-6.4,3.6l0.4-3.6C89.1,28.5,93.4,22.9,100,22.9z"/>
				<path id="Shape_5_" class="st1" d="M114.1,23.3c3.7,0,4.6,3.2,4.4,5.3c-0.4,4.2-4.7,12-6.3,16.2c-0.9,2.3-0.3,3.3,0.6,3.3
					c1.9,0,4.8-2.9,8.2-6.7l-1.3,5.2c0,0-5.3,7.1-12.6,7.1c-3.6,0-4.1-3.2-4.1-4.7c0-4.5,5.5-14.5,7-18.5c0.2-0.3,0.1-0.8-0.1-1.1
					c-0.2-0.3-0.6-0.5-1-0.4c-2.8,0.3-7.7,4.8-7.7,4.8l0.9-4.2C102.2,29.6,107.5,23.3,114.1,23.3z"/>
				<path id="Shape_6_" class="st1" d="M128.7,23.3c2.8,0,4.9,2.7,4.6,4.8c-0.6,4.7-6.4,15.8-7.3,19.2c-0.5,1.8-0.2,2.6,1.2,2
					c1.8-0.8,3.5-2.6,4.9-4.7c0.8-1.3,2.3-1,2.3,0.8c0,2.8-5.1,8.3-10.8,8.3c-4.6,0-6.2-3-6.2-6.9s5.9-14.4,7.3-18.5
					c0.3-1-0.1-1.8-0.7-1.9l-0.9-0.1c-0.2,0-0.3-0.1-0.4-0.3s0-0.3,0.1-0.5C123.5,24.7,125.2,23.3,128.7,23.3z"/>
				<circle id="Oval" class="st1" cx="130.5" cy="14.7" r="4.4"/>
				<path id="Shape_7_" class="st1" d="M196,23.3c3.4,0,5.6,2.3,5.6,4.7c0,3.8-5.9,11.8-5.9,17.5c0,3.8,1.9,5.4,8.3-1.2
					c0.9-0.9,0.5,2.6,0.5,2.6c-2.1,3.6-6.1,5.8-10.3,5.7c-7.3,0-7.1-7.2-6.7-9c1.3-6.5,5.6-12.5,5.6-14.2c0-0.6-0.2-1.3-0.7-1.7
					c-0.5-0.5-1.1-0.7-1.7-0.6c-1,0.1-1.6-0.7-0.7-1.4C191.8,24.2,193.9,23.4,196,23.3z"/>
				<path id="Shape_8_" class="st1" d="M211.7,23.3c3.4,0,4.7,2.8,4.7,5.2c0,3.8-5.6,11.2-5.6,16.9c0,2.3,1.3,3.8,4.8,1.2
					c4-3,9.8-10.6,8.7-20.6c-0.1-1.2,3.7-5.6,3.7,3.6c0,6.5-5.3,23-18.1,23c-6.5,0-8.3-6.1-7.1-10.1c1.9-6.3,5.2-11.7,5.7-13.4
					c0.5-1.6-0.5-2.7-1.4-2.8C204.6,26.1,208.8,23.3,211.7,23.3z"/>
				<path id="Shape_9_" class="st1" d="M230.3,37.8c-2,0-7.4-1.3-7.4-7.4c0-3.6,1.4-4.4,1.4-4.4l3.7,3.6c0-4.7-1.1-7-3.2-7
					c-2.1,0-6,2.7-6,7.9s2.4,9.4,11.5,9.4C230.3,40,232.4,37.8,230.3,37.8z"/>
				<path id="Shape_10_" class="st1" d="M284.5,5.2c4.2,0,8.3,1.8,8.3,6.9c0,7.3-7.5,22.6-8.3,28.8c-0.7,4.9,0.6,7.3,2.7,6.9
					c3.6-0.8,5.4-7.3,7.4-6.6c1.4,0.5,1.2,2.1,0.5,3.6s-3.1,8.1-11.7,8.1s-8.8-10-7.7-14.3c0.6-2.4,7.5-22,8-24.5s0.3-4.4-0.7-5.6
					C281.5,6.8,282.1,5.2,284.5,5.2z"/>
				<path id="Shape_11_" class="st1" d="M76.1,30.2c0,6.4-17.1,13-17.1,13l-0.1-3.9c7.3,0,16.2-11.5,9.7-11.5c-3.1,0-6.9,6.9-7,11.5
					c-0.1,5,1.2,7.7,3.9,7.7c6.9,0,17-9.9,17-9.9s0.1,3.9-0.9,5.2C80.7,43.6,69.2,52.9,63,52.9c-4,0-10-1.7-10-11.6
					c0-10.9,9.3-17.8,15.6-17.8C73.4,23.4,76.1,26.1,76.1,30.2z"/>
				<path id="Shape_12_" class="st1" d="M251.8,30.2c0,7.1-17.1,13.5-17.1,13.5l-0.1-4.4c7.3,0,15.2-11.5,9.7-11.5
					c-2.9,0-6.9,6.9-7,11.5c-0.1,5,1.2,7.7,3.9,7.7c6.9,0,17-9.9,17-9.9s0.1,3.9-0.9,5.2c-0.9,1.3-12.4,10.6-18.6,10.6
					c-4,0-10-1.7-10-11.6c0-10.9,9.3-17.8,15.6-17.8C249.1,23.4,251.8,26.1,251.8,30.2z"/>
				<path id="Shape_13_" class="st1" d="M274.6,29.4c0,6.9-16.2,13.4-16.2,13.4l-1.1-4.1c7.3,0,15.5-11,10.2-11
					c-7.3,0-9.6,19.8-3,19.8c6.9,0,16.5-9.4,16.5-9.4s0.1,3.9-0.9,5.2c-0.9,1.3-11.4,9.5-17.5,9.5c-4,0-11.1-0.7-11.1-11.6
					s9.8-18.4,16.1-18.4C272.3,22.9,274.6,25.4,274.6,29.4z"/>
				<path id="Shape_14_" class="st1" d="M86.2,23c2.9,0,5.8,1.7,5.5,5.3c-0.6,7-6.6,13.4-6.9,23.2c0,0.2-0.2,0.4-0.4,0.5
					c-1.6,0.5-3.3,0.8-5,0.9c-2.3,0-4.9-0.7-4.4-3.7c0.3-1.5,7.7-18.4,7.7-20.9c0-1.2-0.8-2.2-1.9-2.5c-0.2-0.1-0.4-0.3-0.4-0.5
					s0.1-0.4,0.2-0.6C82.4,23.5,84.3,23,86.2,23z"/>
				<path id="Shape_15_" class="st1" d="M100,22.9c3.7,0,5.7,3.4,4.9,5.7c-2.6,8-5.9,14.3-6.6,19.9c-0.2,1.2-0.1,2.3,0.2,3.5
					c0.1,0.3,0,0.5-0.3,0.7c-1.7,0.7-3.5,1.1-5.3,1c-3.6,0-3.8-3.2-3.6-4.7c0.4-2.7,5.9-16,6.7-19.3c0.2-0.9-0.4-1.3-1-1.1
					c-1.9,0.5-6.4,3.6-6.4,3.6l0.4-3.6C89.1,28.5,93.4,22.9,100,22.9z"/>
				<path id="Shape_16_" class="st1" d="M114.1,23.3c3.7,0,4.6,3.2,4.4,5.3c-0.4,4.2-4.7,12-6.3,16.2c-0.9,2.3-0.3,3.3,0.6,3.3
					c1.9,0,4.8-2.9,8.2-6.7l-1.3,5.2c0,0-5.3,7.1-12.6,7.1c-3.6,0-4.1-3.2-4.1-4.7c0-4.5,5.5-14.5,7-18.5c0.2-0.3,0.1-0.8-0.1-1.1
					c-0.2-0.3-0.6-0.5-1-0.4c-2.8,0.3-7.7,4.8-7.7,4.8l0.9-4.2C102.2,29.6,107.5,23.3,114.1,23.3z"/>
				<path id="Shape_17_" class="st1" d="M128.7,23.3c3.1,0,4.9,2.7,4.6,4.8c-0.6,4.7-6.4,15.8-7.3,19.2c-0.5,1.8-0.2,2.6,1.2,2
					c1.8-0.8,3.5-2.6,4.9-4.7c0.8-1.3,2.3-1,2.3,0.8c0,2.8-5.1,8.3-10.8,8.3c-4.6,0-6.2-3-6.2-6.9s5.9-14.4,7.3-18.5
					c0.3-1-0.1-1.8-0.7-1.9l-0.9-0.1c-0.2,0-0.3-0.1-0.4-0.3s0-0.3,0.1-0.5C123.5,24.7,125.2,23.3,128.7,23.3z"/>
				<circle id="Oval_1_" class="st1" cx="130.5" cy="14.7" r="4.4"/>
				<path id="Shape_18_" class="st1" d="M176.5,4.3c-9.1,0-15.9,7.5-15.9,15.2c0,9.8,10.7,14.2,10.7,27.1c0,9.2-7.7,12-13.4,12
					c-6.1,0-10.8-4-10.8-11.5c0-6.8,3.5-9,6.9-9c2.3,0,3.3,2.3,3.3,3.7c0,3-3.8,4.7-3.8,8.2s2,5,5.2,5s7.2-3.3,7.2-9
					s-4-13.7-12.3-13.7s-14.7,6.6-14.7,15.4c0,8.3,6.8,17.8,20.6,17.8c19.9,0,25.5-11.3,25.5-19.5c0-15.8-14.1-20.9-14.1-29
					c0-5,3.4-8.1,6.5-8.1c2.5,0,3.7,1.4,3.7,2.5c0,2-2.1,3.8-2.1,6.3c0,2.7,2.2,5,5,5c3.9,0,6.8-3.3,6.8-7.4
					C190.8,10.9,186.5,4.3,176.5,4.3z"/>
				<path id="Shape_19_" class="st1" d="M196,23.3c3.4,0,5.6,2.3,5.6,4.7c0,3.8-5.9,11.8-5.9,17.5c0,3.8,1.9,5.4,8.3-1.2
					c0.9-0.9,0.5,2.6,0.5,2.6c-2.1,3.6-6.1,5.8-10.3,5.7c-7.3,0-7.1-7.2-6.7-9c1.3-6.5,5.6-12.5,5.6-14.2c0-0.6-0.2-1.3-0.7-1.7
					c-0.5-0.5-1.1-0.7-1.7-0.6c-1,0.1-1.6-0.7-0.7-1.4C191.8,24.2,193.9,23.4,196,23.3z"/>
				<path id="Shape_20_" class="st1" d="M211.7,23.3c3.4,0,4.7,2.8,4.7,5.2c0,3.8-5.6,11.2-5.6,16.9c0,2.3,1.3,3.8,4.8,1.2
					c4-3,9.8-10.6,8.7-20.6c-0.1-1.2,3.7-5.6,3.7,3.6c0,6.5-5.3,23-18.1,23c-6.5,0-8.3-6.1-7.1-10.1c1.9-6.3,5.2-11.7,5.7-13.4
					c0.5-1.6-0.5-2.7-1.4-2.8C204.6,26.1,208.8,23.3,211.7,23.3z"/>
				<path id="Shape_21_" class="st1" d="M230.3,37.8c-2,0-7.4-1.3-7.4-7.4c0-3.6,1.4-4.4,1.4-4.4l3.7,3.6c0-4.7-0.9-7-3.7-7
					c-2.5,0-5.5,2.7-5.5,7.9s2.4,9.4,11.5,9.4C230.3,40,232.4,37.8,230.3,37.8z"/>
				<path id="Shape_22_" class="st1" d="M284.5,5.2c4.2,0,8.3,1.8,8.3,6.9c0,7.3-7.5,22.6-8.3,28.8c-0.7,4.9,0.6,7.3,2.7,6.9
					c3.6-0.8,5.4-7.3,7.4-6.6c1.4,0.5,1.2,2.1,0.5,3.6s-3.1,8.1-11.7,8.1s-8.8-10-7.7-14.3c0.6-2.4,7.5-22,8-24.5s0.3-4.4-0.7-5.6
					C281.5,6.8,282.1,5.2,284.5,5.2z"/>
				<g id="Shape_23_">
					<g>
						<path class="st2" d="M305.7,19.5c-0.3,4.2-4.2,10.3-11.6,10.7c-0.2,0-0.5,0-0.7,0h-1l0,0l-0.3,0.8c-0.8,2.4-1.7,4.8-2.4,6.8
							c-0.2,0.6-0.4,1.2-0.5,1.8c0.8-1,1.9-2,3.2-2.6c0,0,0,0,0.1,0c0.4-0.2,0.9-0.3,1.4-0.3c0.2,0,0.3,0,0.5,0s0.3,0,0.5,0
							c0.3,0,0.6,0.1,0.9,0.2c0,0,0,0,0.1,0s0.2,0.1,0.4,0.1c1.6,0.5,2.9,1.7,3.5,3.2c0.2,0.5,0.4,1,0.5,1.7c0,0,0,0,0,0.1
							c0.1,1.2-0.1,2.7-0.9,4.5l-0.1,0.2c-3.1,7.1-8.3,9.6-12.8,10.3c-0.3,0-0.6,0.1-0.9,0.1c-0.6,0.1-1.3,0.1-2,0.1
							c-0.3,0-0.6,0-0.9,0s-0.5,0-0.8-0.1c-0.5,0-0.9-0.1-1.4-0.2c-0.1,0-0.1,0-0.2,0c-0.2,0-0.4-0.1-0.5-0.2
							c-0.2,0-0.3-0.1-0.5-0.2c-2.3-0.8-3.9-2.2-4.9-3.4c-0.2,0.1-0.4,0.2-0.6,0.3l-0.1,0.1l-0.3,0.2c-0.2,0.1-0.5,0.3-0.7,0.4
							c-0.3,0.2-0.7,0.4-1,0.5c-0.1,0.1-0.2,0.1-0.3,0.2c-0.2,0.1-0.4,0.2-0.6,0.3c-0.3,0.1-0.5,0.2-0.8,0.4
							c-0.3,0.1-0.5,0.2-0.8,0.3c-0.4,0.2-0.9,0.3-1.3,0.5c-0.6,0.2-1.1,0.4-1.6,0.5c-0.4,0.1-0.8,0.2-1.2,0.3
							c-0.1,0-0.2,0.1-0.4,0.1c-0.2,0-0.3,0.1-0.5,0.1s-0.5,0-0.7,0.1l0,0c-0.2,0-0.4,0-0.7,0c-0.4,0-0.7,0-1,0h-0.1
							c-0.3,0-0.7,0-1-0.1c-0.3,0-0.6,0-0.9-0.1h-0.1c-1-0.1-2-0.3-2.9-0.6c-0.2-0.1-0.4-0.1-0.6-0.2c-0.4-0.1-0.8-0.3-1.2-0.5
							c-0.2-0.1-0.4-0.2-0.6-0.3c-0.5-0.2-0.9-0.5-1.4-0.8c-0.1-0.1-0.2-0.1-0.3-0.2c-0.6-0.5-1.2-1-1.7-1.5l-0.1-0.1l0,0
							c-1.5,0.9-3.1,1.8-4.6,2.5c-0.2,0.1-0.5,0.2-0.8,0.3s-0.5,0.2-0.8,0.3s-0.5,0.2-0.8,0.3s-0.5,0.2-0.8,0.3
							c-0.5,0.2-1,0.3-1.5,0.4c-0.6,0.2-1.3,0.2-1.9,0.3c-0.1,0-0.3,0-0.4,0c-0.2,0-0.4,0-0.6,0c-0.8,0-1.5,0-2.2-0.1
							c-0.3,0-0.6-0.1-0.9-0.1c-0.5-0.1-0.9-0.2-1.4-0.3c-0.4-0.1-0.8-0.2-1.2-0.4c-0.2-0.1-0.4-0.1-0.6-0.2
							c-0.9-0.4-1.8-0.9-2.6-1.5c-0.2-0.1-0.3-0.2-0.5-0.4c0,0,0,0-0.1-0.1c-0.3-0.2-0.5-0.5-0.8-0.7c-0.8-0.8-1.5-1.7-2.1-2.7l0,0
							c-0.4-0.7-0.7-1.4-1-2.1C222.1,53.3,217,57,210,57c-2.6,0-5.1-0.8-7.2-2.3c-2.5,1.5-5.4,2.3-8.4,2.3c-2.4,0.1-4.7-0.6-6.7-2
							c-2.2,5.2-6.5,9.9-13.6,12.5c-0.5,0.2-1,0.4-1.5,0.5c-0.4,0.1-0.7,0.2-1.1,0.3c-0.3,0.1-0.6,0.2-0.9,0.3
							c-1,0.3-2.1,0.5-3.2,0.6c-0.4,0.1-0.9,0.2-1.4,0.2c-0.3,0-0.6,0.1-0.9,0.1c-0.4,0-0.8,0.1-1.1,0.1c-0.4,0-0.8,0.1-1.2,0.1
							c-0.5,0-1.1,0-1.7,0.1c-0.5,0-1,0-1.5,0c-0.4,0-0.7,0-1,0c-0.4,0-0.7,0-1,0s-0.7,0-1-0.1c-0.6-0.1-1.2-0.1-1.8-0.2
							c-4.2-0.7-7.7-2.1-10.6-4.2c-0.2-0.2-0.5-0.4-0.7-0.5c-1-0.7-1.8-1.5-2.7-2.4c-0.2-0.2-0.4-0.4-0.6-0.7
							c-0.6-0.7-1.2-1.4-1.6-2.1c-0.3-0.4-0.5-0.8-0.7-1.2c-1-1.6-1.7-3.4-2.2-5.2c-0.1-0.2-0.1-0.5-0.2-0.7c-1.9,2-4.4,3.7-7.2,4.6
							c-0.2,0.1-0.4,0.1-0.6,0.2c-0.2,0.1-0.4,0.1-0.6,0.2c-0.1,0-0.2,0-0.3,0.1c-0.2,0-0.3,0.1-0.5,0.1c-0.3,0-0.5,0.1-0.8,0.1
							s-0.6,0.1-0.8,0.1c-0.2,0-0.5,0-0.7,0h-0.1c-0.3,0-0.5,0-0.8,0H123c-0.9-0.1-1.8-0.2-2.6-0.5c-0.2-0.1-0.4-0.1-0.6-0.2
							c-1.2-0.5-2.3-1.1-3.2-2c-2.8,1.7-5.8,2.6-9,2.7h-0.1c-0.2,0-0.4,0-0.6,0c-0.1,0-0.3,0-0.4,0c-0.2,0-0.3,0-0.5-0.1
							c-0.1,0-0.1,0-0.2,0c-0.2,0-0.4-0.1-0.6-0.1l0,0c-0.2-0.1-0.5-0.2-0.7-0.3s-0.5-0.2-0.7-0.3s-0.4-0.2-0.6-0.3
							c-0.4-0.3-0.9-0.6-1.2-0.9c-0.1,0-0.1-0.1-0.2-0.1c-0.4,0.3-0.8,0.6-1.3,0.8C98.3,57.5,96,58,93.7,58h-0.1c-0.2,0-0.3,0-0.5,0
							c-2.1,0-4.1-0.9-5.5-2.4c0,0,0,0-0.1,0c-0.2,0.2-0.4,0.3-0.6,0.4l0,0c-0.6,0-0.9,0-1.1,0.1c-2,0.6-4.1,0.9-6.2,1h-0.1
							c-3.1,0-5.5-0.9-7.1-2.8v-0.1c-0.4,0.2-0.8,0.4-1.2,0.6h-0.1c-2.8,1.4-5.5,2.2-7.9,2.2c-3.7,0-6.9-1.1-9.3-3.1l-0.2-0.1
							l-0.1-0.1c-0.7,1.9-1.6,3.7-2.8,5.4c-0.2,0.2-0.4,0.5-0.5,0.7c-0.2,0.2-0.4,0.5-0.6,0.7c-0.2,0.2-0.4,0.5-0.6,0.7
							c-0.2,0.2-0.3,0.3-0.5,0.5c-0.1,0.1-0.3,0.3-0.4,0.4c-0.2,0.2-0.3,0.3-0.5,0.5s-0.4,0.4-0.6,0.5c-0.2,0.2-0.3,0.3-0.5,0.4
							c-0.2,0.2-0.4,0.3-0.6,0.5c-0.2,0.2-0.4,0.3-0.7,0.5c-0.2,0.2-0.5,0.3-0.7,0.4c-0.3,0.2-0.5,0.3-0.8,0.5s-0.7,0.4-1,0.5
							c-0.6,0.3-1.1,0.6-1.7,0.8c-0.3,0.1-0.6,0.3-0.9,0.4c-4,1.6-9,2.5-15,2.5C9.5,69.6,0.8,59,0.2,48.5c0-0.3,0-0.7,0-1
							c0-0.4,0-0.7,0-1c0.5-10.6,8.6-18.8,19-18.8c1.3,0,2.5,0.1,3.8,0.5c0.5,0.1,1,0.3,1.5,0.4c-0.4-0.7-0.8-1.4-1.1-2.1
							c-0.3,0-0.4-0.3-0.4-0.5c-0.8-2-1.2-4.2-1.2-6.5C21.7,8.9,31,0,42,0c6.2,0,10.7,2,13.8,4.9C55.9,5,56,5.2,56.2,5.3
							c3.1,3,4.5,6.9,4.5,10.1c0,2.8-0.9,5.4-2.6,7.6c0.9-0.6,1.7-1.2,2.6-1.6h0.1c2.7-1.5,5.5-2.2,8-2.2c3.4,0,6.2,1.1,8.3,3
							c0,0,0,0,0.1,0.1l0,0c0.3-0.4,0.7-0.8,1.1-1.1c2.3-1.6,5.1-2.5,8-2.4c2.2,0,4.3,0.6,6.1,1.8c2.3-1.3,5-2,7.7-2
							c2.4,0,4.6,0.8,6.4,2.4c2.4-1.2,5-1.9,7.7-1.9c2.3,0,4.7,0.8,6.3,2.6l0.1,0.1l0.1-0.1l0.1-0.1c0.5-0.4,1.1-0.8,1.7-1.1
							c0.4-0.2,0.8-0.4,1.2-0.5c-0.9-1.1-1.5-2.5-1.7-3.8v-0.1c0-0.2,0-0.4-0.1-0.6c0-0.1,0-0.2,0-0.3c-0.1-1.4,0.2-2.9,0.9-4.2
							c0,0,0-0.1,0.1-0.2c0.1-0.2,0.2-0.3,0.3-0.5c1.9-3,5.4-4.6,8.9-4c0.1,0,0.2,0,0.3,0.1c0.1,0,0.2,0,0.3,0.1
							c0.8,0.2,1.7,0.5,2.4,1c0.5,0.3,1,0.6,1.4,1.1c1.3,1.2,2.2,2.8,2.6,4.5c0.2,1,0.2,2.1,0.1,3.1c0,0.1,0,0.3-0.1,0.4
							c0,0.1-0.1,0.2-0.1,0.3c0,0.2-0.1,0.3-0.1,0.5c-0.1,0.3-0.2,0.7-0.4,1c-0.7,1.4-1.7,2.7-3.1,3.7l0.1,0.1
							c0.1,0.1,0.2,0.2,0.2,0.2c1.1,1.2,1.7,2.8,1.9,4.3v0.1c0,0.1,0,0.3,0.1,0.4c0,0.5,0,1,0,1.4c-0.4,2.7-1.7,6.3-3.7,10.8
							c0.7,0.1,1.4,0.3,2,0.7c0.7-1.9,1.7-3.6,2.9-5.1c3.5-4.4,8.9-7.1,14.7-7.1c1.3,0,2.5,0.1,3.8,0.5c0.5,0.1,1,0.3,1.4,0.4
							c-0.4-0.7-0.8-1.4-1.1-2.1v-0.1c-0.1-0.2-0.1-0.3-0.2-0.5c-0.1-0.3-0.2-0.5-0.3-0.8c-0.7-1.9-1-3.8-1-5.9
							c0-10.6,9.3-19.5,20.3-19.5c5.4,0,9.5,1.6,12.5,3.8c0.1,0.1,0.3,0.2,0.4,0.3c3.9,3.2,5.7,7.6,5.7,11.1c0,1-0.1,2.2-0.4,3.2
							l0,0c0,0.1-0.1,0.3-0.1,0.4c0.1,0,0.2,0,0.4-0.1l0,0c0.3,0,0.7,0,1,0c1.3,0,2.6,0.2,3.9,0.7c0.1,0,0.2,0.1,0.3,0.1
							c0.2,0.1,0.3,0.1,0.5,0.2c1.1,0.6,2.1,1.3,3,2.2c0.1-0.1,0.2-0.2,0.3-0.3c2.1-2,5.5-3,7.7-3c1,0,1.9,0.2,2.8,0.5
							c0.1,0,0.3,0.1,0.4,0.1c0.7,0.3,1.3,0.6,2,1.1l0.1,0.1l0.4,0.3c0.1,0.1,0.2,0.2,0.4,0.3l0,0c1.7-1.9,4-2.9,6.5-3
							c1.4,0,2.9,0.3,4.2,1.1c0.1,0.1,0.3,0.2,0.4,0.3c1.2,1,2.3,2.5,2.9,4.9c0.1-0.1,0.1-0.1,0.2-0.2c3.7-3.2,8.1-5.1,11.9-5.3
							c0.2,0,0.5,0,0.7,0s0.5,0,0.7,0l0,0c0.3,0,0.6,0,0.8,0.1c0.2,0,0.5,0.1,0.7,0.1c0.4,0.1,0.9,0.2,1.3,0.3
							c2.9,0.8,5.2,2.6,6.5,4.9c0.7-0.7,1.4-1.3,2.1-1.8c-0.8-0.7-1.3-1.5-1.6-2.3c-0.7-1.6-0.6-3.5,0.3-5.2
							c2.2-3.8,8.6-6.7,14.9-6.7c2.4,0.1,4.7,0.4,7,1c0.5,0.1,1,0.3,1.4,0.4c-0.2-0.4-0.4-0.8-0.5-1.1l0,0c-0.5-1.4-0.5-2.9,0.1-4.3
							c1-2.2,3.3-3.5,6.2-3.5c2.3,0,4.5,0.4,6.2,1.2c0.1,0,0.1,0,0.2,0.1c3.8,1.8,6.1,5.2,6.2,9.7c0.1-0.1,0.2-0.1,0.3-0.2
							c0.7-0.4,1.4-0.5,2.2-0.5c0.5,0,0.9,0.1,1.4,0.2c0.1,0,0.3,0.1,0.4,0.1s0.3,0.1,0.4,0.2s0.3,0.1,0.4,0.2
							c0.1,0,0.1,0.1,0.2,0.1c0.1,0.1,0.2,0.1,0.3,0.2c0.3,0.2,0.6,0.5,0.9,0.8C305.2,14.6,305.9,16.9,305.7,19.5z"/>
					</g>
				</g>
				<path id="Shape_24_" class="st1" d="M42,4.3c-9.1,0-16,7.5-16,15.2c0,9.8,10.7,14.2,10.7,27.1c0,9.2-7.7,12-13.4,12
					c-6.1,0-10.8-4-10.8-11.5c0-6.8,3.5-9,6.9-9c2.3,0,3.3,2.3,3.3,3.7c0,3-3.8,4.7-3.8,8.2s2,5,5.2,5s7.2-3.3,7.2-9
					S27.2,32.3,19,32.3S4.4,38.9,4.4,47.7c0,8.3,6.8,17.8,20.6,17.8c20,0,25.6-11.2,25.6-19.5c0-15.8-14.1-21.4-14.1-29
					c0-5,3.4-8.1,6.5-8.1c2.5,0,3.7,1.4,3.7,2.5c0,2-2.1,3.8-2.1,6.3c0,2.7,2.2,5,5,5c3.9,0,6.8-3.3,6.8-7.4
					C56.3,10.9,52,4.3,42,4.3z"/>
				<path id="Shape_25_" class="st1" d="M76.1,30.2c0,6.4-17.1,13-17.1,13l-0.1-3.9c7.3,0,16.2-11.5,9.7-11.5c-3.1,0-6.9,6.9-7,11.5
					c-0.1,5,1.2,7.7,3.9,7.7c6.9,0,17-9.9,17-9.9s0.1,3.9-0.9,5.2C80.7,43.6,69.2,52.9,63,52.9c-4,0-10-1.7-10-11.6
					c0-10.9,9.3-17.8,15.6-17.8C73.4,23.4,76.1,26.1,76.1,30.2z"/>
				<path id="Shape_26_" class="st1" d="M251.8,30.2c0,7.1-17.1,13.5-17.1,13.5l-0.1-4.4c7.3,0,15.2-11.5,9.7-11.5
					c-2.9,0-6.9,6.9-7,11.5c-0.1,5,1.2,7.7,3.9,7.7c6.9,0,17-9.9,17-9.9s0.1,3.9-0.9,5.2c-0.9,1.3-12.4,10.6-18.6,10.6
					c-4,0-10-1.7-10-11.6c0-10.9,9.3-17.8,15.6-17.8C249.1,23.4,251.8,26.1,251.8,30.2z"/>
				<path id="Shape_27_" class="st1" d="M274.6,29.4c0,6.9-16.2,13.4-16.2,13.4l-1.1-4.1c7.3,0,15.5-11,10.2-11
					c-7.3,0-9.6,19.8-3,19.8c6.9,0,16.5-9.4,16.5-9.4s0.1,3.9-0.9,5.2c-0.9,1.3-11.4,9.5-17.5,9.5c-4,0-11.1-0.7-11.1-11.6
					s9.8-18.4,16.1-18.4C272.3,22.9,274.6,25.4,274.6,29.4z"/>
				<path id="Shape_28_" class="st1" d="M86.2,23c2.9,0,5.8,1.7,5.5,5.3c-0.6,7-6.6,13.4-6.9,23.2c0,0.2-0.2,0.4-0.4,0.5
					c-1.6,0.5-3.3,0.8-5,0.9c-2.3,0-4.9-0.7-4.4-3.7c0.3-1.5,7.7-18.4,7.7-20.9c0-1.2-0.8-2.2-1.9-2.5c-0.2-0.1-0.4-0.3-0.4-0.5
					s0.1-0.4,0.2-0.6C82.4,23.5,84.3,23,86.2,23z"/>
				<path id="Shape_29_" class="st1" d="M100,22.9c3.7,0,5.7,3.4,4.9,5.7c-2.6,8-5.9,14.3-6.6,19.9c-0.2,1.2-0.1,2.3,0.2,3.5
					c0.1,0.3,0,0.5-0.3,0.7c-1.7,0.7-3.5,1.1-5.3,1c-3.6,0-3.8-3.2-3.6-4.7c0.4-2.7,5.9-16,6.7-19.3c0.2-0.9-0.4-1.3-1-1.1
					c-1.9,0.5-6.4,3.6-6.4,3.6l0.4-3.6C89.1,28.5,93.4,22.9,100,22.9z"/>
				<path id="Shape_30_" class="st1" d="M114.1,23.3c3.7,0,4.6,3.2,4.4,5.3c-0.4,4.2-4.7,12-6.3,16.2c-0.9,2.3-0.3,3.3,0.6,3.3
					c1.9,0,4.8-2.9,8.2-6.7l-1.3,5.2c0,0-5.3,7.1-12.6,7.1c-3.6,0-4.1-3.2-4.1-4.7c0-4.5,5.5-14.5,7-18.5c0.2-0.3,0.1-0.8-0.1-1.1
					c-0.2-0.3-0.6-0.5-1-0.4c-2.8,0.3-7.7,4.8-7.7,4.8l0.9-4.2C102.2,29.6,107.5,23.3,114.1,23.3z"/>
				<path id="Shape_31_" class="st1" d="M128.7,23.3c3.1,0,4.9,2.7,4.6,4.8c-0.6,4.7-6.4,15.8-7.3,19.2c-0.5,1.8-0.2,2.6,1.2,2
					c1.8-0.8,3.5-2.6,4.9-4.7c0.8-1.3,2.3-1,2.3,0.8c0,2.8-5.1,8.3-10.8,8.3c-4.6,0-6.2-3-6.2-6.9s5.9-14.4,7.3-18.5
					c0.3-1-0.1-1.8-0.7-1.9l-0.9-0.1c-0.2,0-0.3-0.1-0.4-0.3s0-0.3,0.1-0.5C123.5,24.7,125.2,23.3,128.7,23.3z"/>
				<circle id="Oval_2_" class="st1" cx="130.5" cy="14.7" r="4.4"/>
				<path id="Shape_32_" class="st1" d="M176.5,4.3c-9.1,0-15.9,7.5-15.9,15.2c0,9.8,10.7,14.2,10.7,27.1c0,9.2-7.7,12-13.4,12
					c-6.1,0-10.8-4-10.8-11.5c0-6.8,3.5-9,6.9-9c2.3,0,3.3,2.3,3.3,3.7c0,3-3.8,4.7-3.8,8.2s2,5,5.2,5s7.2-3.3,7.2-9
					s-4-13.7-12.3-13.7s-14.7,6.6-14.7,15.4c0,8.3,6.8,17.8,20.6,17.8c19.9,0,25.5-11.3,25.5-19.5c0-15.8-14.1-20.9-14.1-29
					c0-5,3.4-8.1,6.5-8.1c2.5,0,3.7,1.4,3.7,2.5c0,2-2.1,3.8-2.1,6.3c0,2.7,2.2,5,5,5c3.9,0,6.8-3.3,6.8-7.4
					C190.8,10.9,186.5,4.3,176.5,4.3z"/>
				<path id="Shape_33_" class="st1" d="M196,23.3c3.4,0,5.6,2.3,5.6,4.7c0,3.8-5.9,11.8-5.9,17.5c0,3.8,1.9,5.4,8.3-1.2
					c0.9-0.9,0.5,2.6,0.5,2.6c-2.1,3.6-6.1,5.8-10.3,5.7c-7.3,0-7.1-7.2-6.7-9c1.3-6.5,5.6-12.5,5.6-14.2c0-0.6-0.2-1.3-0.7-1.7
					c-0.5-0.5-1.1-0.7-1.7-0.6c-1,0.1-1.6-0.7-0.7-1.4C191.8,24.2,193.9,23.4,196,23.3z"/>
				<path id="Shape_34_" class="st1" d="M211.7,23.3c3.4,0,4.7,2.8,4.7,5.2c0,3.8-5.6,11.2-5.6,16.9c0,2.3,1.3,3.8,4.8,1.2
					c4-3,9.8-10.6,8.7-20.6c-0.1-1.2,3.7-5.6,3.7,3.6c0,6.5-5.3,23-18.1,23c-6.5,0-8.3-6.1-7.1-10.1c1.9-6.3,5.2-11.7,5.7-13.4
					c0.5-1.6-0.5-2.7-1.4-2.8C204.6,26.1,208.8,23.3,211.7,23.3z"/>
				<path id="Shape_35_" class="st1" d="M230.3,37.8c-2,0-7.4-1.3-7.4-7.4c0-3.6,1.4-4.4,1.4-4.4l3.7,3.6c0-4.7-0.9-7-3.7-7
					c-2.5,0-5.5,2.7-5.5,7.9s2.4,9.4,11.5,9.4C230.3,40,232.4,37.8,230.3,37.8z"/>
				<path id="Shape_36_" class="st1" d="M284.5,5.2c4.2,0,8.3,1.8,8.3,6.9c0,7.3-7.5,22.6-8.3,28.8c-0.7,4.9,0.6,7.3,2.7,6.9
					c3.6-0.8,5.4-7.3,7.4-6.6c1.4,0.5,1.2,2.1,0.5,3.6s-3.1,8.1-11.7,8.1s-8.8-10-7.7-14.3c0.6-2.4,7.5-22,8-24.5s0.3-4.4-0.7-5.6
					C281.5,6.8,282.1,5.2,284.5,5.2z"/>
				<path id="Shape_37_" class="st1" d="M301.4,19.2c-0.2,2.4-2.8,6.6-8.1,6.6c-7.7,0-11.9-4.8-21.1-6.4c-3.8-0.7-8.5-0.1-11.4,0.3
					c-0.6,0.1-1.2-0.1-1.6-0.6s-0.4-1.2-0.1-1.7c1.2-2.1,5.9-4.6,11.2-4.6c7.4,0,17.4,5.7,21.4,5.7c2.7,0,5.4-1,7.4-2.8
					C300,15.1,301.6,16.3,301.4,19.2z"/>
			</g>
			<g id="shine" transform="translate(26.589147, 7.054264)">
				<path id="Shape_38_" class="st2" d="M26,2.7c3.8,3.5,2.8,8.9,0.5,10.2C27.8,9.6,27.6,5.9,26,2.7L26,2.7z"/>
				<path id="Shape_39_" class="st2" d="M1.6,33.4c1.3,2.2,3,8.5-1.4,11.8C1.6,42.1,2.2,38.5,1.6,33.4z"/>
				<path id="Shape_40_" class="st2" d="M16.3,23.8c3.7,5.2,8.5,16.6,1.5,25.8C21.3,42.7,21.1,33.4,16.3,23.8z"/>
				<path id="Shape_41_" class="st2" d="M160.4,2.7c3.8,3.5,2.8,8.9,0.5,10.2C162.3,9.6,162.1,5.9,160.4,2.7L160.4,2.7z"/>
				<path id="Shape_42_" class="st2" d="M136.1,33.4c1.3,2.2,3,8.5-1.4,11.8C136.1,42.1,136.7,38.5,136.1,33.4z"/>
				<path id="Shape_43_" class="st2" d="M150.8,23.8c3.7,5.2,8.5,16.6,1.5,25.8C155.7,42.7,155.5,33.4,150.8,23.8z"/>
				<path id="Shape_44_" class="st2" d="M105.6,5.2c1,0.5,2.2,3.7-0.4,5.6C106.1,9,106.2,7,105.6,5.2L105.6,5.2z"/>
				<path id="Shape_45_" class="st2" d="M44.1,17.7c2.5,0.5,4.3,2.8,4.2,5.3C47.5,21.3,47,19.8,44.1,17.7z"/>
				<path id="Shape_46_" class="st2" d="M60,17c2.5,0.5,4.3,2.8,4.2,5.3C63.4,20.6,62.8,19.1,60,17z"/>
				<path id="Shape_47_" class="st2" d="M73.1,17c2.4,0,4.8,2.1,4.2,5.3C76.6,20.1,76,18.7,73.1,17z"/>
				<path id="Shape_48_" class="st2" d="M86.7,17c2.4,0,4.8,2.1,4.2,5.3C90.2,20.1,89.6,18.7,86.7,17z"/>
				<path id="Shape_49_" class="st2" d="M169.8,17.6c2.4,0,4.3,2.5,3.5,5.2C172.8,20.5,172.9,19.3,169.8,17.6z"/>
				<path id="Shape_50_" class="st2" d="M184.7,17.7c2.4,0,4.5,2.1,3.4,5.4C187.6,21,187.6,19.5,184.7,17.7z"/>
				<path id="Shape_51_" class="st2" d="M101.8,17.4c2.4,0,4.3,1.6,3.4,4.8C104.5,19.9,104.7,19.1,101.8,17.4z"/>
				<path id="Shape_52_" class="st2" d="M33.6,36.7c0.3,3.2,2.1,5.8,7.1,4.3c0,0-4.1,2.1-6,0.3C32.8,39.4,33.6,36.7,33.6,36.7z"/>
				<path id="Shape_53_" class="st2" d="M84.2,38.9c0,1.6,0.2,4.1,3.3,2.7c0,0-1.6,1.7-2.9,0.9C83.3,41.8,84.2,38.9,84.2,38.9z"/>
				<path id="Shape_54_" class="st2" d="M98.4,40.3c0,1.6-0.4,4.1,2.7,2.7c0,0-1.2,1.5-2.3,0.9C97.4,43.3,98.4,40.3,98.4,40.3z"/>
				<path id="Shape_55_" class="st2" d="M168.2,38.3c0.1,1.7,0.4,4,2.4,4c0,0-2.1,0.7-2.6-0.7C167.4,40.2,168.2,38.3,168.2,38.3z"/>
				<path id="Shape_56_" class="st2" d="M183.2,37.9c0.1,1.7,0.4,4,2.4,4c0,0-2,0.7-2.6-0.7S183.2,37.9,183.2,37.9z"/>
				<path id="Shape_57_" class="st2" d="M210.3,36.7c0.1,1.7,1.4,4.6,5.1,4.2c0,0-3.4,0.8-4.5-0.4C209.5,38.8,210.3,36.7,210.3,36.7
					z"/>
				<path id="Shape_58_" class="st2" d="M233.6,37.2c0.1,1.7,1.4,4.6,5.1,4.2c0,0-3.4,0.9-4.5-0.3C232.8,39.5,233.6,37.2,233.6,37.2
					z"/>
				<path id="Shape_59_" class="st2" d="M256.6,37.7c0.1,1.7,0.6,4.6,4.3,4.2c0,0-2.6,0.9-3.7-0.3C255.8,40,256.6,37.7,256.6,37.7z"
					/>
				<path id="Shape_60_" class="st2" d="M219.9,17.9c2.5,0.5,4.3,2.8,4.2,5.3C223.3,21.4,222.8,19.9,219.9,17.9z"/>
				<path id="Shape_61_" class="st2" d="M242.7,17.5c2.5,0.5,4.3,2.8,4.2,5.3C246.1,21,245.5,19.6,242.7,17.5z"/>
				<path id="Shape_62_" class="st2" d="M260.6,0.2c2.5,0.5,4.3,2.8,4.2,5.3C264,3.8,263.5,2.3,260.6,0.2z"/>
			</g>
		</g>
	</g>
</g>
</svg>
