<svg xmlns="http://www.w3.org/2000/svg" viewBox="0 0 571 134.67"><defs><style>.cls-1{fill:#ff5352;}.cls-2{fill:#fff;}</style></defs><title>ss-logo</title><g id="new_logo" data-name="new logo"><path class="cls-1" d="M144.17,58.63c0,11.87-31.54,24-31.54,24l-.12-7.25c13.5,0,29.87-21.25,17.88-21.25-5.71,0-12.76,12.76-12.87,21.25-.12,9.23,2.13,14.25,7.25,14.25,12.75,0,31.38-18.25,31.38-18.25s.13,7.13-1.62,9.5-22.94,19.5-34.25,19.5c-7.37,0-18.37-3.12-18.37-21.37,0-20,17.13-32.87,28.75-32.87C139.18,46.13,144.17,51.1,144.17,58.63Z"/><path class="cls-1" d="M468.08,58.63c0,13.12-31.54,24-31.54,24l-.12-7.25c13.5,0,27.92-21.25,17.88-21.25-5.29,0-12.76,12.76-12.87,21.25-.12,9.23,2.13,14.25,7.25,14.25,12.75,0,31.38-18.25,31.38-18.25s.13,7.13-1.62,9.5-22.94,19.5-34.25,19.5c-7.37,0-18.37-3.12-18.37-21.37,0-20,17.13-32.87,28.75-32.87C463.09,46.13,468.08,51.1,468.08,58.63Z"/><path class="cls-1" d="M510.13,57.25c0,12.67-30.84,24.59-30.84,24.59l-1.08-7.46c13.5,0,28.54-20.25,18.88-20.25-13.52,0-17.75,36.5-5.62,36.5,12.75,0,30.38-17.25,30.38-17.25s.13,7.13-1.62,9.5-20.94,17.5-32.25,17.5c-7.37,0-20.37-1.37-20.37-21.37s18.13-33.87,29.75-33.87C505.89,45.13,510.13,49.72,510.13,57.25Z"/><path class="cls-1" d="M162.92,45.42c5.42,0,10.71,3.19,10.17,9.75C172,68.16,161,79.86,160.45,97.91a1,1,0,0,1-.7.93,35.84,35.84,0,0,1-9.17,1.58c-4.26,0-9.07-1.36-8.08-6.84.49-2.73,14.25-34,14.17-38.58a4.92,4.92,0,0,0-3.53-4.59,1.18,1.18,0,0,1-.28-2A16.67,16.67,0,0,1,162.92,45.42Z"/><path class="cls-1" d="M188.33,45.13c6.75,0,10.47,6.2,9.08,10.46-4.79,14.67-10.83,26.33-12.25,36.75a14.15,14.15,0,0,0,.43,6.38,1,1,0,0,1-.54,1.21,24.2,24.2,0,0,1-9.72,1.91c-6.58,0-7-5.85-6.58-8.58.67-4.92,10.82-29.56,12.33-35.63.42-1.69-.71-2.31-1.85-2-3.57.87-11.81,6.65-11.81,6.65l.75-6.67S176.17,45.13,188.33,45.13Z"/><path class="cls-1" d="M214.25,46c6.75,0,8.53,5.84,8.13,9.81-.8,7.81-8.59,22.15-11.54,29.85-1.63,4.26-.53,6,1.08,6,3.46,0,8.83-5.42,15.15-12.35l-2.44,9.56s-9.79,13-23.19,13c-6.58,0-7.58-5.82-7.58-8.58,0-8.32,10.06-26.73,12.91-34.07a1.87,1.87,0,0,0-2-2.7c-5.25.57-14.24,8.76-14.24,8.76l1.75-7.67S202.08,46,214.25,46Z"/><path class="cls-1" d="M241.13,46c5.13,0,9,5,8.56,8.8-1.06,8.7-11.84,29.16-13.44,35.32-.86,3.31-.39,4.79,2.13,3.63,3.38-1.56,6.38-4.88,9-8.75,1.56-2.31,4.15-1.77,4.15,1.5,0,5.13-9.47,15.33-19.9,15.33-8.44,0-11.37-5.48-11.37-12.71S231.06,62.5,233.63,55c.62-1.8-.12-3.37-1.25-3.5l-1.65-.2a.82.82,0,0,1-.52-1.36C231.54,48.43,234.67,46,241.13,46Z"/><circle class="cls-1" cx="244.5" cy="30" r="8.03"/><path class="cls-1" d="M365.25,45.92c6.25,0,10.33,4.25,10.33,8.67,0,7-10.83,21.67-10.83,32.17,0,7.08,3.5,9.92,15.33-2.17,1.57-1.6.92,4.84.92,4.84A21.51,21.51,0,0,1,362.08,100c-13.5,0-13.09-13.34-12.42-16.67,2.42-11.92,10.33-23,10.33-26.25a4.09,4.09,0,0,0-4.39-4.33c-1.78.17-2.86-1.25-1.36-2.67A19.69,19.69,0,0,1,365.25,45.92Z"/><path class="cls-1" d="M394.19,45.92c6.25,0,8.69,5.23,8.69,9.65,0,7-10.29,20.69-10.29,31.19,0,4.19,2.46,7.08,8.79,2.25,7.38-5.62,18.06-19.5,16-38-.25-2.23,6.88-10.37,6.88,6.69,0,11.94-9.83,42.31-33.33,42.31-12,0-15.25-11.17-13-18.65,3.56-11.63,9.53-21.55,10.48-24.66.87-2.87-.85-5-2.62-5.12C381.13,51.13,388.81,45.92,394.19,45.92Z"/><path class="cls-1" d="M428.5,72.69c-3.75,0-13.62-2.37-13.62-13.62,0-6.62,2.5-8.06,2.5-8.06l6.88,6.69c0-8.69-1.94-12.94-5.81-12.94s-11.12,5.06-11.12,14.5,4.5,17.38,21.19,17.38C428.5,76.63,432.25,72.69,428.5,72.69Z"/><path class="cls-1" d="M528.38,12.63c7.79,0,15.25,3.38,15.25,12.63,0,13.5-13.75,41.63-15.32,53-1.25,9,1.19,13.54,5,12.64,6.55-1.56,10-13.48,13.71-12.15,2.61.93,2.25,3.88,1,6.63s-5.75,15-21.62,15S510.1,82,512.13,74c1.13-4.5,13.75-40.62,14.75-45.12s.63-8.12-1.37-10.37C522.84,15.5,523.84,12.63,528.38,12.63Z"/><path class="cls-1" d="M144.17,58.63c0,11.87-31.54,24-31.54,24l-.12-7.25c13.5,0,29.87-21.25,17.88-21.25-5.71,0-12.76,12.76-12.87,21.25-.12,9.23,2.13,14.25,7.25,14.25,12.75,0,31.38-18.25,31.38-18.25s.13,7.13-1.62,9.5-22.94,19.5-34.25,19.5c-7.37,0-18.37-3.12-18.37-21.37,0-20,17.13-32.87,28.75-32.87C139.18,46.13,144.17,51.1,144.17,58.63Z"/><path class="cls-1" d="M468.08,58.63c0,13.12-31.54,24.87-31.54,24.87l-.12-8.12c13.5,0,27.92-21.25,17.88-21.25-5.29,0-12.76,12.76-12.87,21.25-.12,9.23,2.13,14.25,7.25,14.25,12.75,0,31.38-18.25,31.38-18.25s.13,7.13-1.62,9.5-22.94,19.5-34.25,19.5c-7.37,0-18.37-3.12-18.37-21.37,0-20,17.13-32.87,28.75-32.87C463.09,46.13,468.08,51.1,468.08,58.63Z"/><path class="cls-1" d="M510.13,57.25c0,12.67-29.84,24.75-29.84,24.75l-2.08-7.62c13.5,0,28.54-20.25,18.88-20.25-13.52,0-17.75,36.5-5.62,36.5,12.75,0,30.38-17.25,30.38-17.25s.13,7.13-1.62,9.5-20.94,17.5-32.25,17.5c-7.37,0-20.37-1.37-20.37-21.37s18.13-33.87,29.75-33.87C505.89,45.13,510.13,49.72,510.13,57.25Z"/><path class="cls-1" d="M162.92,45.42c5.42,0,10.71,3.19,10.17,9.75C172,68.16,161,79.86,160.45,97.91a1,1,0,0,1-.7.93,35.84,35.84,0,0,1-9.17,1.58c-4.26,0-9.07-1.36-8.08-6.84.49-2.73,14.25-34,14.17-38.58a4.92,4.92,0,0,0-3.53-4.59,1.18,1.18,0,0,1-.28-2A16.67,16.67,0,0,1,162.92,45.42Z"/><path class="cls-1" d="M188.33,45.13c6.75,0,10.47,6.2,9.08,10.46-4.79,14.67-10.83,26.33-12.25,36.75a14.15,14.15,0,0,0,.43,6.38,1,1,0,0,1-.54,1.21,24.2,24.2,0,0,1-9.72,1.91c-6.58,0-7-5.85-6.58-8.58.67-4.92,10.82-29.56,12.33-35.63.42-1.69-.71-2.31-1.85-2-3.57.87-11.81,6.65-11.81,6.65l.75-6.67S176.17,45.13,188.33,45.13Z"/><path class="cls-1" d="M214.25,46c6.75,0,8.53,5.84,8.13,9.81-.8,7.81-8.59,22.15-11.54,29.85-1.63,4.26-.53,6,1.08,6,3.46,0,8.83-5.42,15.15-12.35l-2.44,9.56s-9.79,13-23.19,13c-6.58,0-7.58-5.82-7.58-8.58,0-8.32,10.06-26.73,12.91-34.07a1.87,1.87,0,0,0-2-2.7c-5.25.57-14.24,8.76-14.24,8.76l1.75-7.67S202.08,46,214.25,46Z"/><path class="cls-1" d="M241.13,46c5.75,0,9,5,8.56,8.8-1.06,8.7-11.84,29.16-13.44,35.32-.86,3.31-.39,4.79,2.13,3.63,3.38-1.56,6.38-4.88,9-8.75,1.56-2.31,4.15-1.77,4.15,1.5,0,5.13-9.47,15.33-19.9,15.33-8.44,0-11.37-5.48-11.37-12.71S231.06,62.5,233.63,55c.62-1.8-.12-3.37-1.25-3.5l-1.65-.2a.82.82,0,0,1-.52-1.36C231.54,48.43,234.67,46,241.13,46Z"/><circle class="cls-1" cx="244.5" cy="30" r="8.03"/><path class="cls-1" d="M329.21,11c-16.71,0-29.33,13.83-29.33,28,0,18,19.74,26.17,19.74,50,0,17-14.24,22.17-24.74,22.17C283.71,111.17,275,103.83,275,90c0-12.53,6.5-16.67,12.67-16.67,4.33,0,6.17,4.33,6.17,6.83,0,5.46-7,8.67-7,15.17s3.67,9.17,9.5,9.17,13.33-6,13.33-16.67S302.21,62.5,287,62.5s-27,12.13-27,28.38c0,15.25,12.58,32.88,38,32.88,36.71,0,47-20.75,47-35.92,0-29.08-26-38.58-26-53.5,0-9.21,6.21-15,12-15,4.67,0,6.83,2.5,6.83,4.67,0,3.75-3.83,7-3.83,11.67a9.24,9.24,0,0,0,9.17,9.17c7.17,0,12.46-6.08,12.46-13.59C355.67,23.13,347.71,11,329.21,11Z"/><path class="cls-1" d="M365.25,45.92c6.25,0,10.33,4.25,10.33,8.67,0,7-10.83,21.67-10.83,32.17,0,7.08,3.5,9.92,15.33-2.17,1.57-1.6.92,4.84.92,4.84A21.51,21.51,0,0,1,362.08,100c-13.5,0-13.09-13.34-12.42-16.67,2.42-11.92,10.33-23,10.33-26.25a4.09,4.09,0,0,0-4.39-4.33c-1.78.17-2.86-1.25-1.36-2.67A19.69,19.69,0,0,1,365.25,45.92Z"/><path class="cls-1" d="M394.19,45.92c6.25,0,8.69,5.23,8.69,9.65,0,7-10.29,20.69-10.29,31.19,0,4.19,2.46,7.08,8.79,2.25,7.38-5.62,18.06-19.5,16-38-.25-2.23,6.88-10.37,6.88,6.69,0,11.94-9.83,42.31-33.33,42.31-12,0-15.25-11.17-13-18.65,3.56-11.63,9.53-21.55,10.48-24.66.87-2.87-.85-5-2.62-5.12C381.13,51.13,388.81,45.92,394.19,45.92Z"/><path class="cls-1" d="M428.5,72.69c-3.75,0-13.62-2.37-13.62-13.62,0-6.62,2.5-8.06,2.5-8.06l6.88,6.69c0-8.69-1.75-12.94-6.81-12.94-4.6,0-10.12,5.06-10.12,14.5s4.5,17.38,21.19,17.38C428.5,76.63,432.25,72.69,428.5,72.69Z"/><path class="cls-1" d="M528.38,12.63c7.79,0,15.25,3.38,15.25,12.63,0,13.5-13.75,41.63-15.32,53-1.25,9,1.19,13.54,5,12.64,6.55-1.56,10-13.48,13.71-12.15,2.61.93,2.25,3.88,1,6.63s-5.75,15-21.62,15S510.1,82,512.13,74c1.13-4.5,13.75-40.62,14.75-45.12s.63-8.12-1.37-10.37C522.84,15.5,523.84,12.63,528.38,12.63Z"/><path class="cls-2" d="M563.73,27a10.14,10.14,0,0,0-7.44-3.36,9.44,9.44,0,0,0-4.68,1.25c-.17-12.15-9.46-20.29-23.23-20.29-5.32,0-9.6,2.44-11.43,6.52a11,11,0,0,0,.72,10.08,56.47,56.47,0,0,0-15.41-2.61c-11.62,0-23.45,5.34-27.52,12.43a10.8,10.8,0,0,0,2.43,13.74A46.33,46.33,0,0,0,473.34,48c-3.55-6.12-10.31-9.92-18.81-9.92-7.39,0-16.18,3.62-23.32,10.19-2.38-9.32-8.48-11.56-13.78-11.56a16.65,16.65,0,0,0-12,5.51,16.71,16.71,0,0,0-11.3-4.34c-4.16,0-10.89,2-14.78,6a19,19,0,0,0-14.15-6,20.17,20.17,0,0,0-2.61.18,23.26,23.26,0,0,0,1-6.85C363.67,19.52,353,3,329.21,3,309,3,291.88,19.49,291.88,39a35,35,0,0,0,4.7,17.09A28.81,28.81,0,0,0,287,54.5,34.61,34.61,0,0,0,254.59,77a9.83,9.83,0,0,0-3.69-1.34c3.61-8.38,6.12-14.93,6.73-19.91a15.86,15.86,0,0,0-4-12.2l-.25-.25a16,16,0,1,0-21.7-3.71A19.63,19.63,0,0,0,226,42.89,15.5,15.5,0,0,0,214.25,38a31.64,31.64,0,0,0-14.15,3.55,17.47,17.47,0,0,0-11.77-4.43,30.82,30.82,0,0,0-14.25,3.6,19.77,19.77,0,0,0-11.17-3.31,24.57,24.57,0,0,0-14.78,4.49,9.13,9.13,0,0,0-2,2c-3.8-3.63-9.2-5.75-15.56-5.75-6.17,0-13.31,2.51-19.65,7.16a22.3,22.3,0,0,0,4.81-14C115.79,19.52,105.1,3,81.33,3,61.1,3,44,19.49,44,39a35,35,0,0,0,4.7,17.09,28.81,28.81,0,0,0-9.54-1.59c-19.63,0-35,16-35,36.38,0,19.82,16.12,40.88,46,40.88,31.13,0,46.85-13.91,52.49-29.54l.52.46c4.47,3.73,10.38,5.7,17.08,5.7,5.09,0,11.11-2.22,16.95-5.29l.09.12c2.86,3.42,7.4,5.22,13.14,5.22h.22a43.38,43.38,0,0,0,11.42-1.93,9,9,0,0,0,2.39-1.14,14.14,14.14,0,0,0,10.87,4.47,32.27,32.27,0,0,0,13-2.61,9.06,9.06,0,0,0,2.37-1.55,15.14,15.14,0,0,0,10.74,4.16,32.83,32.83,0,0,0,16.72-4.9c3.31,3.15,7.89,4.9,13.47,4.9,8.26,0,16.23-4.34,21.52-10,4.09,16.71,19.54,31.88,44.9,31.88,29.7,0,45.37-12.66,51.65-27.39A20.8,20.8,0,0,0,362.08,108a30,30,0,0,0,15.54-4.19,21.83,21.83,0,0,0,13.3,4.19c12.87,0,22.38-6.78,29-15.65a24,24,0,0,0,7.15,10.33c4.47,3.73,10.38,5.7,17.08,5.7s14.82-3.76,22.14-8.26c4.22,4.8,11,8.26,21.66,8.26,6.62,0,14.48-3.43,21.4-7.53,3,3.56,8.26,7.53,17,7.53,9.26,0,21.76-3.35,28.73-19.3l.17-.39c2.43-5.34,1.76-9.22.78-11.54a10.72,10.72,0,0,0-6.38-5.93,9.76,9.76,0,0,0-3.27-.57c-4.31,0-7.2,2.56-9.46,5.37,1.13-4.22,3.28-10.12,5.37-15.88l.56-1.55c.53,0,1.07,0,1.62,0,14.65,0,22.3-11.75,22.86-19.69C567.69,34.12,566.41,29.89,563.73,27Z"/><path class="cls-1" d="M81.33,11C64.63,11,52,24.83,52,39c0,18,19.74,26.17,19.74,50,0,17-14.24,22.17-24.74,22.17-11.17,0-19.83-7.33-19.83-21.17,0-12.53,6.5-16.67,12.67-16.67,4.33,0,6.17,4.33,6.17,6.83,0,5.46-7,8.67-7,15.17s3.67,9.17,9.5,9.17,13.33-6,13.33-16.67S54.33,62.5,39.17,62.5s-27,12.13-27,28.38c0,15.25,12.58,32.88,38,32.88,36.71,0,47-20.75,47-35.92,0-29.08-26-39.45-26-53.5,0-9.21,6.21-15,12-15,4.67,0,6.83,2.5,6.83,4.67,0,3.75-3.83,7-3.83,11.67a9.24,9.24,0,0,0,9.17,9.17c7.17,0,12.46-6.08,12.46-13.59C107.79,23.13,99.83,11,81.33,11Z"/><path class="cls-1" d="M144.17,58.63c0,11.87-31.54,24-31.54,24l-.12-7.25c13.5,0,29.87-21.25,17.88-21.25-5.71,0-12.76,12.76-12.87,21.25-.12,9.23,2.13,14.25,7.25,14.25,12.75,0,31.38-18.25,31.38-18.25s.13,7.13-1.62,9.5-22.94,19.5-34.25,19.5c-7.37,0-18.37-3.12-18.37-21.37,0-20,17.13-32.87,28.75-32.87C139.18,46.13,144.17,51.1,144.17,58.63Z"/><path class="cls-1" d="M468.08,58.63c0,13.12-31.54,24.87-31.54,24.87l-.12-8.12c13.5,0,27.92-21.25,17.88-21.25-5.29,0-12.76,12.76-12.87,21.25-.12,9.23,2.13,14.25,7.25,14.25,12.75,0,31.38-18.25,31.38-18.25s.13,7.13-1.62,9.5-22.94,19.5-34.25,19.5c-7.37,0-18.37-3.12-18.37-21.37,0-20,17.13-32.87,28.75-32.87C463.09,46.13,468.08,51.1,468.08,58.63Z"/><path class="cls-1" d="M510.13,57.25c0,12.67-29.84,24.75-29.84,24.75l-2.08-7.62c13.5,0,28.54-20.25,18.88-20.25-13.52,0-17.75,36.5-5.62,36.5,12.75,0,30.38-17.25,30.38-17.25s.13,7.13-1.62,9.5-20.94,17.5-32.25,17.5c-7.37,0-20.37-1.37-20.37-21.37s18.13-33.87,29.75-33.87C505.89,45.13,510.13,49.72,510.13,57.25Z"/><path class="cls-1" d="M162.92,45.42c5.42,0,10.71,3.19,10.17,9.75C172,68.16,161,79.86,160.45,97.91a1,1,0,0,1-.7.93,35.84,35.84,0,0,1-9.17,1.58c-4.26,0-9.07-1.36-8.08-6.84.49-2.73,14.25-34,14.17-38.58a4.92,4.92,0,0,0-3.53-4.59,1.18,1.18,0,0,1-.28-2A16.67,16.67,0,0,1,162.92,45.42Z"/><path class="cls-1" d="M188.33,45.13c6.75,0,10.47,6.2,9.08,10.46-4.79,14.67-10.83,26.33-12.25,36.75a14.15,14.15,0,0,0,.43,6.38,1,1,0,0,1-.54,1.21,24.2,24.2,0,0,1-9.72,1.91c-6.58,0-7-5.85-6.58-8.58.67-4.92,10.82-29.56,12.33-35.63.42-1.69-.71-2.31-1.85-2-3.57.87-11.81,6.65-11.81,6.65l.75-6.67S176.17,45.13,188.33,45.13Z"/><path class="cls-1" d="M214.25,46c6.75,0,8.53,5.84,8.13,9.81-.8,7.81-8.59,22.15-11.54,29.85-1.63,4.26-.53,6,1.08,6,3.46,0,8.83-5.42,15.15-12.35l-2.44,9.56s-9.79,13-23.19,13c-6.58,0-7.58-5.82-7.58-8.58,0-8.32,10.06-26.73,12.91-34.07a1.87,1.87,0,0,0-2-2.7c-5.25.57-14.24,8.76-14.24,8.76l1.75-7.67S202.08,46,214.25,46Z"/><path class="cls-1" d="M241.13,46c5.75,0,9,5,8.56,8.8-1.06,8.7-11.84,29.16-13.44,35.32-.86,3.31-.39,4.79,2.13,3.63,3.38-1.56,6.38-4.88,9-8.75,1.56-2.31,4.15-1.77,4.15,1.5,0,5.13-9.47,15.33-19.9,15.33-8.44,0-11.37-5.48-11.37-12.71S231.06,62.5,233.63,55c.62-1.8-.12-3.37-1.25-3.5l-1.65-.2a.82.82,0,0,1-.52-1.36C231.54,48.43,234.67,46,241.13,46Z"/><circle class="cls-1" cx="244.5" cy="30" r="8.03"/><path class="cls-1" d="M329.21,11c-16.71,0-29.33,13.83-29.33,28,0,18,19.74,26.17,19.74,50,0,17-14.24,22.17-24.74,22.17C283.71,111.17,275,103.83,275,90c0-12.53,6.5-16.67,12.67-16.67,4.33,0,6.17,4.33,6.17,6.83,0,5.46-7,8.67-7,15.17s3.67,9.17,9.5,9.17,13.33-6,13.33-16.67S302.21,62.5,287,62.5s-27,12.13-27,28.38c0,15.25,12.58,32.88,38,32.88,36.71,0,47-20.75,47-35.92,0-29.08-26-38.58-26-53.5,0-9.21,6.21-15,12-15,4.67,0,6.83,2.5,6.83,4.67,0,3.75-3.83,7-3.83,11.67a9.24,9.24,0,0,0,9.17,9.17c7.17,0,12.46-6.08,12.46-13.59C355.67,23.13,347.71,11,329.21,11Z"/><path class="cls-1" d="M365.25,45.92c6.25,0,10.33,4.25,10.33,8.67,0,7-10.83,21.67-10.83,32.17,0,7.08,3.5,9.92,15.33-2.17,1.57-1.6.92,4.84.92,4.84A21.51,21.51,0,0,1,362.08,100c-13.5,0-13.09-13.34-12.42-16.67,2.42-11.92,10.33-23,10.33-26.25a4.09,4.09,0,0,0-4.39-4.33c-1.78.17-2.86-1.25-1.36-2.67A19.69,19.69,0,0,1,365.25,45.92Z"/><path class="cls-1" d="M394.19,45.92c6.25,0,8.69,5.23,8.69,9.65,0,7-10.29,20.69-10.29,31.19,0,4.19,2.46,7.08,8.79,2.25,7.38-5.62,18.06-19.5,16-38-.25-2.23,6.88-10.37,6.88,6.69,0,11.94-9.83,42.31-33.33,42.31-12,0-15.25-11.17-13-18.65,3.56-11.63,9.53-21.55,10.48-24.66.87-2.87-.85-5-2.62-5.12C381.13,51.13,388.81,45.92,394.19,45.92Z"/><path class="cls-1" d="M428.5,72.69c-3.75,0-13.62-2.37-13.62-13.62,0-6.62,2.5-8.06,2.5-8.06l6.88,6.69c0-8.69-1.75-12.94-6.81-12.94-4.6,0-10.12,5.06-10.12,14.5s4.5,17.38,21.19,17.38C428.5,76.63,432.25,72.69,428.5,72.69Z"/><path class="cls-1" d="M528.38,12.63c7.79,0,15.25,3.38,15.25,12.63,0,13.5-13.75,41.63-15.32,53-1.25,9,1.19,13.54,5,12.64,6.55-1.56,10-13.48,13.71-12.15,2.61.93,2.25,3.88,1,6.63s-5.75,15-21.62,15S510.1,82,512.13,74c1.13-4.5,13.75-40.62,14.75-45.12s.63-8.12-1.37-10.37C522.84,15.5,523.84,12.63,528.38,12.63Z"/><path class="cls-1" d="M559.38,38.38c-.31,4.49-5.12,12.25-14.87,12.25-14.23,0-21.87-8.87-38.87-11.87-7-1.23-15.69-.26-21,.59a2.89,2.89,0,0,1-3-4.3c2.21-3.85,10.88-8.42,20.58-8.42,13.63,0,32.13,10.5,39.5,10.5A21,21,0,0,0,555.38,32C556.88,30.75,559.75,33,559.38,38.38Z"/></g><g id="shine"><path class="cls-2" d="M100.88,21.06c6.92,6.38,5.13,16.38,1,18.75A22.42,22.42,0,0,0,100.88,21.06Z"/><path class="cls-2" d="M56,77.47c2.37,4.12,5.53,15.59-2.62,21.78C56,93.63,57.14,86.94,56,77.47Z"/><path class="cls-2" d="M83.13,59.88c6.88,9.5,15.75,30.5,2.75,47.5C92.3,94.7,91.94,77.46,83.13,59.88Z"/><path class="cls-2" d="M348.63,21.06c6.92,6.38,5.13,16.38,1,18.75A22.42,22.42,0,0,0,348.63,21.06Z"/><path class="cls-2" d="M303.75,77.47c2.37,4.12,5.53,15.59-2.62,21.78C303.76,93.63,304.89,86.94,303.75,77.47Z"/><path class="cls-2" d="M330.88,59.88c6.88,9.5,15.75,30.5,2.75,47.5C340,94.71,339.55,77.47,330.88,59.88Z"/><path class="cls-2" d="M247.63,25.5c1.91.88,4,6.76-.75,10.25A13.63,13.63,0,0,0,247.63,25.5Z"/><path class="cls-2" d="M134.33,48.65a9.41,9.41,0,0,1,7.7,9.83C140.55,55.2,139.58,52.5,134.33,48.65Z"/><path class="cls-2" d="M163.55,47.34a9.41,9.41,0,0,1,7.7,9.83C169.77,53.89,168.8,51.18,163.55,47.34Z"/><path class="cls-2" d="M187.72,47.34c4.45,0,8.78,3.83,7.7,9.83C194.17,53.08,193.08,50.5,187.72,47.34Z"/><path class="cls-2" d="M212.8,47.34c4.45,0,8.78,3.83,7.7,9.83C219.25,53.08,218.17,50.5,212.8,47.34Z"/><path class="cls-2" d="M366,48.39c4.45,0,8,4.53,6.5,9.66C371.53,53.87,371.54,51.5,366,48.39Z"/><path class="cls-2" d="M393.34,48.71c4.45,0,8.25,3.91,6.25,10C398.79,54.63,398.7,51.88,393.34,48.71Z"/><path class="cls-2" d="M240.59,48c4.45,0,7.94,3,6.29,8.83C245.62,52.74,246,51.16,240.59,48Z"/><path class="cls-2" d="M115,83.63c.51,5.86,3.79,10.7,13,7.88,0,0-7.5,3.78-11,.47S115,83.63,115,83.63Z"/><path class="cls-2" d="M208.08,87.75c-.08,2.92.33,7.58,6,5,0,0-2.92,3.07-5.29,1.67S208.08,87.75,208.08,87.75Z"/><path class="cls-2" d="M234.25,90.33c-.08,2.92-.67,7.58,5,5,0,0-2.13,2.7-4.29,1.67C232.49,95.83,234.25,90.33,234.25,90.33Z"/><path class="cls-2" d="M363,86.58c.13,3.17.71,7.46,4.46,7.42,0,0-3.79,1.33-4.87-1.26S363,86.58,363,86.58Z"/><path class="cls-2" d="M390.64,85.92c.13,3.17.71,7.46,4.46,7.42,0,0-3.64,1.38-4.72-1.21S390.64,85.92,390.64,85.92Z"/><path class="cls-2" d="M440.57,83.57c.13,3.17,2.63,8.42,9.42,7.7,0,0-6.33,1.48-8.37-.8C439,87.58,440.57,83.57,440.57,83.57Z"/><path class="cls-2" d="M483.51,84.57c.13,3.17,2.63,8.42,9.42,7.7,0,0-6.26,1.75-8.3-.53C482,88.85,483.51,84.57,483.51,84.57Z"/><path class="cls-2" d="M525.82,85.51c.13,3.17,1.07,8.48,7.86,7.76,0,0-4.7,1.7-6.75-.58C524.35,89.8,525.82,85.51,525.82,85.51Z"/><path class="cls-2" d="M458.33,48.92a9.41,9.41,0,0,1,7.7,9.83C464.55,55.47,463.58,52.76,458.33,48.92Z"/><path class="cls-2" d="M500.25,48.23a9.41,9.41,0,0,1,7.7,9.83C506.47,54.78,505.5,52.08,500.25,48.23Z"/><path class="cls-2" d="M533.27,16.39a9.41,9.41,0,0,1,7.7,9.83C539.49,22.94,538.52,20.23,533.27,16.39Z"/></g></svg>