<svg xmlns="http://www.w3.org/2000/svg" xmlns:xlink="http://www.w3.org/1999/xlink" viewBox="0 0 80 160"><defs><style>.cls-1{fill:#b0bec5;}.cls-2{isolation:isolate;}.cls-3{clip-path:url(#clip-path);}.cls-4{fill:#78909c;}.cls-5{fill:#fbc02d;}.cls-6{fill:#f57c00;}.cls-7{fill:#ff9800;}.cls-8{fill:#fff;}.cls-9{fill:#fff3e0;}.cls-10{fill:#263238;}.cls-11{fill:#d7ccc8;opacity:0.4;mix-blend-mode:multiply;}.cls-12{clip-path:url(#clip-path-2);}.cls-13{fill:none;stroke:#263238;stroke-linecap:round;stroke-linejoin:round;stroke-width:3px;}</style><clipPath id="clip-path"><circle class="cls-1" cx="40" cy="120" r="40"/></clipPath><clipPath id="clip-path-2"><circle class="cls-1" cx="40" cy="40" r="40"/></clipPath></defs><title>logo-smile</title><g class="cls-2"><g id="Layer_1" data-name="Layer 1"><circle class="cls-1" cx="40" cy="120" r="40"/><g class="cls-3"><rect class="cls-4" x="-4" y="80" width="88" height="88"/><polygon class="cls-5" points="64 168 16 168 16 120 28 112 52 112 64 120 64 168"/><polygon class="cls-6" points="64 120 64 168 40 168 40 112 58 112 64 120"/><rect class="cls-7" x="28" y="112" width="24" height="56"/><path class="cls-8" d="M40,148h0a8,8,0,0,1-8-8H48A8,8,0,0,1,40,148Z"/><polygon class="cls-9" points="64 120 52 112 40 120 28 112 16 120 40 88 64 120"/><polygon class="cls-10" points="49 100 31 100 40 88 49 100"/><polygon class="cls-11" points="64 120 52 112 40 120 40 88 64 120"/></g><circle class="cls-1" cx="40" cy="40" r="40"/><g class="cls-12"><rect class="cls-4" x="-4" width="88" height="88"/><polygon class="cls-5" points="64 88 16 88 16 40 28 32 52 32 64 40 64 88"/><polygon class="cls-6" points="64 40 64 88 40 88 40 32 58 32 64 40"/><rect class="cls-7" x="28" y="32" width="24" height="56"/><rect class="cls-10" x="25" y="47" width="6" height="10" rx="3" ry="3"/><rect class="cls-10" x="49" y="47" width="6" height="10" rx="3" ry="3"/><path class="cls-8" d="M40,68h0a8,8,0,0,1-8-8H48A8,8,0,0,1,40,68Z"/><polygon class="cls-9" points="64 40 52 32 40 40 28 32 16 40 40 8 64 40"/><polygon class="cls-10" points="49 20 31 20 40 8 49 20"/><polygon class="cls-11" points="64 40 52 32 40 40 40 8 64 40"/></g><path class="cls-13" d="M48,132c0-5.32,8-5.32,8,0"/><path class="cls-13" d="M24,132c0-5.32,8-5.32,8,0"/></g></g></svg>