<svg xmlns="http://www.w3.org/2000/svg" xmlns:xlink="http://www.w3.org/1999/xlink" viewBox="0 0 96 84"><defs><style>.cls-1,.cls-9{fill:none;}.cls-2{isolation:isolate;}.cls-3{fill:#78909c;}.cls-4{fill:#fff3e0;}.cls-5{fill:#ff9800;}.cls-6{clip-path:url(#clip-path);}.cls-7{fill:#fff;}.cls-8{fill:#d7ccc8;opacity:0.4;mix-blend-mode:multiply;}.cls-9{stroke:#ffa000;stroke-linecap:round;stroke-linejoin:round;}.cls-10{fill:#ffa000;}</style><clipPath id="clip-path"><polygon class="cls-1" points="28 16 24 32 48 52 72 32 68 16 28 16"/></clipPath></defs><title>send-email</title><g class="cls-2"><g id="Layer_1" data-name="Layer 1"><circle class="cls-3" cx="48" cy="44" r="40"/><path class="cls-4" d="M72,32V66a2,2,0,0,1-.64,1.46A1.94,1.94,0,0,1,70,68H26a1.93,1.93,0,0,1-1.35-.54A2,2,0,0,1,24,66V32Z"/><path class="cls-5" d="M46.72,13.07,24,32,48,52,72,32,49.28,13.07A2,2,0,0,0,46.72,13.07Z"/><g class="cls-6"><rect class="cls-7" x="28" y="20" width="40" height="36"/></g><path class="cls-8" d="M71.36,67.46A1.94,1.94,0,0,1,70,68H26a1.93,1.93,0,0,1-1.35-.54L48,52Z"/><path class="cls-9" d="M35.52,34.62c3.13,0,7.53-5,7.53-7.08s-3.77-2.66-3.77,1.86V39.83S41.2,33.34,43.05,33s-1,7,1.51,7,4.52-5.35,4.52-7c0,0-1.74,7,1.74,7,2.5,0,2.9-4.34,2.9-4.34"/><circle class="cls-10" cx="49.78" cy="29.07" r="0.7"/><path class="cls-9" d="M60,26c-.93,4.47-1.78,9.42-1.78,9.42"/><circle class="cls-10" cx="57.57" cy="38.48" r="0.7"/></g></g></svg>