<svg xmlns="http://www.w3.org/2000/svg" viewBox="0 0 96 84"><defs><style>.cls-1{isolation:isolate;}.cls-2{fill:#78909c;}.cls-3{fill:#cfd8dc;}.cls-4{fill:#37474f;}.cls-5{fill:#263238;}.cls-6{fill:#ffb74d;}.cls-7{fill:#ff9800;}.cls-8{fill:#b0bec5;}.cls-9{fill:#fff;}.cls-10{fill:#fff3e0;}.cls-11{fill:none;stroke:#ff9800;stroke-miterlimit:10;stroke-width:1.5px;}.cls-12,.cls-13{fill:#d7ccc8;mix-blend-mode:multiply;}.cls-12{opacity:0.5;}.cls-13{opacity:0.2;}</style></defs><title>thank-you</title><g class="cls-1"><g id="Layer_1" data-name="Layer 1"><path class="cls-2" d="M88,44A40,40,0,0,1,56,83.2a37.8,37.8,0,0,1-4,.6c-1.32.13-2.65.2-4,.2s-2.68-.07-4-.2A40,40,0,1,1,88,44Z"/><path class="cls-3" d="M76,60H56V38A10,10,0,0,1,66,28h0A10,10,0,0,1,76,38Z"/><rect class="cls-3" x="34" y="28" width="32" height="32"/><path class="cls-4" d="M44,38V60H24V38a10,10,0,1,1,20,0Z"/><path class="cls-5" d="M44,38V60H40V38a10,10,0,0,0-8-9.8A10,10,0,0,1,44,38Z"/><path class="cls-6" d="M56,60V83.2a37.8,37.8,0,0,1-4,.6c-1.32.13-2.65.2-4,.2s-2.68-.07-4-.2V60Z"/><path class="cls-7" d="M56,60V83.2a37.8,37.8,0,0,1-4,.6V60Z"/><path class="cls-8" d="M40,56H80a0,0,0,0,1,0,0v0a4,4,0,0,1-4,4H40a0,0,0,0,1,0,0V56a0,0,0,0,1,0,0Z"/><path class="cls-3" d="M39,60H19c-1.21,0-3-1.79-3-4H44C44,58.21,42.21,60,39,60Z"/><path class="cls-7" d="M56,14h2a0,0,0,0,1,0,0V40a0,0,0,0,1,0,0H54a0,0,0,0,1,0,0V16A2,2,0,0,1,56,14Z"/><path class="cls-9" d="M58,14H68a2,2,0,0,1,2,2v6a2,2,0,0,1-2,2H58a0,0,0,0,1,0,0V14A0,0,0,0,1,58,14Z"/><circle class="cls-7" cx="59" cy="40" r="5"/><circle class="cls-10" cx="59" cy="40" r="2"/><polyline class="cls-11" points="60.83 18.16 63.17 20.5 67.17 16.5"/><polygon class="cls-12" points="56 60 56 62 52 64 44 64 44 60 56 60"/><path class="cls-10" d="M44,38V56H23a1.9,1.9,0,0,1-1.36-.55A2,2,0,0,1,21,54V38a2,2,0,0,1,.64-1.45A1.9,1.9,0,0,1,23,36H43.8A10,10,0,0,1,44,38Z"/><path class="cls-10" d="M44,38V56H23a1.9,1.9,0,0,1-1.36-.55A2,2,0,0,1,21,54V38a2,2,0,0,1,.64-1.45A1.9,1.9,0,0,1,23,36H43.8A10,10,0,0,1,44,38Z"/><path class="cls-13" d="M44,51.71V56H23a1.9,1.9,0,0,1-1.36-.55l2.36-2,1-.86L32.67,46,35,48l2.33-2Z"/><path class="cls-9" d="M44,38v2.29L35,48,21.64,36.55A1.9,1.9,0,0,1,23,36H43.8A10,10,0,0,1,44,38Z"/><path class="cls-7" d="M21.6,1l.93,3a1.53,1.53,0,0,0,1,1l3,.94a.62.62,0,0,1,0,1.19l-3,.94a1.49,1.49,0,0,0-1,1l-.93,3a.63.63,0,0,1-1.2,0l-.93-3a1.49,1.49,0,0,0-1-1l-3-.94a.62.62,0,0,1,0-1.19l3-.94a1.53,1.53,0,0,0,1-1l.93-3A.63.63,0,0,1,21.6,1Z"/><path class="cls-7" d="M88.6,34.44l.93,3a1.53,1.53,0,0,0,1,1l3,.93a.63.63,0,0,1,0,1.2l-3,.93a1.53,1.53,0,0,0-1,1l-.93,3a.63.63,0,0,1-1.2,0l-.93-3a1.53,1.53,0,0,0-1-1l-3-.93a.63.63,0,0,1,0-1.2l3-.93a1.53,1.53,0,0,0,1-1l.93-3A.63.63,0,0,1,88.6,34.44Z"/><path class="cls-9" d="M14.4,33.29l.62,2a1,1,0,0,0,.66.66l2,.62a.42.42,0,0,1,0,.8l-2,.62a1,1,0,0,0-.66.66l-.62,2a.42.42,0,0,1-.8,0l-.62-2a1,1,0,0,0-.66-.66l-2-.62a.42.42,0,0,1,0-.8l2-.62a1,1,0,0,0,.66-.66l.62-2A.42.42,0,0,1,14.4,33.29Z"/><circle class="cls-7" cx="6.5" cy="20.5" r="1.5"/><circle class="cls-9" cx="29.17" cy="20" r="1.5"/><circle class="cls-7" cx="45.5" cy="12.6" r="1.5"/><circle class="cls-9" cx="77" cy="27" r="1.5"/></g></g></svg>